<svg width="650" height="650"><rect width="100%" height="100%" fill="black"></rect><circle cx="46.99760765550239" cy="603.0023923444976" r="3.0385875308664945" fill="#fecc5c"><title>25</title></circle><circle cx="46.99760765550239" cy="392.12918660287085" r="0" fill="#ffffb2"><title>1</title></circle><circle cx="46.99760765550239" cy="366.59090909090907" r="0.6543242095991559" fill="#ffffb2"><title>2</title></circle><circle cx="46.99760765550239" cy="352.72727272727275" r="2.959876101469817" fill="#fecc5c"><title>23</title></circle><circle cx="46.99760765550239" cy="341.0526315789474" r="0" fill="#ffffb2"><title>1</title></circle><circle cx="46.99760765550239" cy="75.4545454545455" r="0.6543242095991559" fill="#ffffb2"><title>2</title></circle><circle cx="62.32057416267943" cy="587.6794258373205" r="0.6543242095991559" fill="#ffffb2"><title>2</title></circle><circle cx="62.32057416267943" cy="344.70095693779905" r="0.6543242095991559" fill="#ffffb2"><title>2</title></circle><circle cx="62.32057416267943" cy="271.7344497607656" r="0" fill="#ffffb2"><title>1</title></circle><circle cx="62.32057416267943" cy="264.4377990430622" r="0" fill="#ffffb2"><title>1</title></circle><circle cx="103.18181818181817" cy="546.8181818181819" r="0" fill="#ffffb2"><title>1</title></circle><circle cx="103.18181818181817" cy="348.34928229665076" r="0" fill="#ffffb2"><title>1</title></circle><circle cx="127.99043062200955" cy="522.0095693779905" r="0" fill="#ffffb2"><title>1</title></circle><circle cx="127.99043062200955" cy="368.05023923444975" r="0" fill="#ffffb2"><title>1</title></circle><circle cx="127.99043062200955" cy="47.72727272727275" r="0" fill="#ffffb2"><title>1</title></circle><circle cx="160.82535885167462" cy="489.17464114832535" r="1.3086484191983119" fill="#ffffb2"><title>4</title></circle><circle cx="160.82535885167462" cy="374.61722488038276" r="0" fill="#ffffb2"><title>1</title></circle><circle cx="160.82535885167462" cy="368.05023923444975" r="0" fill="#ffffb2"><title>1</title></circle><circle cx="160.82535885167462" cy="362.2129186602871" r="0.6543242095991559" fill="#ffffb2"><title>2</title></circle><circle cx="160.82535885167462" cy="361.4832535885168" r="0.6543242095991559" fill="#ffffb2"><title>2</title></circle><circle cx="170.31100478468898" cy="479.688995215311" r="1.836920290439642" fill="#ffffb2"><title>7</title></circle><circle cx="170.31100478468898" cy="389.2105263157895" r="0.6543242095991559" fill="#ffffb2"><title>2</title></circle><circle cx="170.31100478468898" cy="368.05023923444975" r="0" fill="#ffffb2"><title>1</title></circle><circle cx="170.31100478468898" cy="344.70095693779905" r="1.691403545127828" fill="#ffffb2"><title>6</title></circle><circle cx="170.31100478468898" cy="238.16985645933016" r="1.691403545127828" fill="#ffffb2"><title>6</title></circle><circle cx="170.31100478468898" cy="226.4952153110048" r="1.691403545127828" fill="#ffffb2"><title>6</title></circle><circle cx="170.31100478468898" cy="187.82296650717706" r="0" fill="#ffffb2"><title>1</title></circle><circle cx="171.04066985645932" cy="478.9593301435407" r="2.345727754726984" fill="#fecc5c"><title>12</title></circle><circle cx="171.04066985645932" cy="389.2105263157895" r="2.1736179750324034" fill="#fecc5c"><title>10</title></circle><circle cx="171.04066985645932" cy="344.70095693779905" r="0.6543242095991559" fill="#ffffb2"><title>2</title></circle><circle cx="187.09330143540672" cy="462.9066985645933" r="0.6543242095991559" fill="#ffffb2"><title>2</title></circle><circle cx="187.09330143540672" cy="381.9138755980862" r="0.6543242095991559" fill="#ffffb2"><title>2</title></circle><circle cx="188.55263157894734" cy="461.44736842105266" r="0" fill="#ffffb2"><title>1</title></circle><circle cx="188.55263157894734" cy="457.799043062201" r="0" fill="#ffffb2"><title>1</title></circle><circle cx="188.55263157894734" cy="381.9138755980862" r="0" fill="#ffffb2"><title>1</title></circle><circle cx="192.20095693779902" cy="461.44736842105266" r="0" fill="#ffffb2"><title>1</title></circle><circle cx="192.20095693779902" cy="457.799043062201" r="0.6543242095991559" fill="#ffffb2"><title>2</title></circle><circle cx="192.20095693779902" cy="381.9138755980862" r="0.6543242095991559" fill="#ffffb2"><title>2</title></circle><circle cx="211.17224880382773" cy="438.82775119617224" r="1.0370793355286723" fill="#ffffb2"><title>3</title></circle><circle cx="211.17224880382773" cy="392.12918660287085" r="0" fill="#ffffb2"><title>1</title></circle><circle cx="211.17224880382773" cy="389.2105263157895" r="1.0370793355286723" fill="#ffffb2"><title>3</title></circle><circle cx="211.17224880382773" cy="222.11722488038276" r="0.6543242095991559" fill="#ffffb2"><title>2</title></circle><circle cx="239.6291866028708" cy="410.3708133971292" r="1.691403545127828" fill="#ffffb2"><title>6</title></circle><circle cx="239.6291866028708" cy="389.2105263157895" r="0" fill="#ffffb2"><title>1</title></circle><circle cx="239.6291866028708" cy="354.18660287081343" r="1.5192937654332472" fill="#ffffb2"><title>5</title></circle><circle cx="239.6291866028708" cy="264.4377990430622" r="1.5192937654332472" fill="#ffffb2"><title>5</title></circle><circle cx="244.00717703349284" cy="405.99282296650716" r="0" fill="#ffffb2"><title>1</title></circle><circle cx="244.00717703349284" cy="389.2105263157895" r="0" fill="#ffffb2"><title>1</title></circle><circle cx="244.73684210526315" cy="405.2631578947369" r="0.6543242095991559" fill="#ffffb2"><title>2</title></circle><circle cx="244.73684210526315" cy="389.2105263157895" r="0" fill="#ffffb2"><title>1</title></circle><circle cx="244.73684210526315" cy="381.9138755980862" r="0" fill="#ffffb2"><title>1</title></circle><circle cx="245.46650717703346" cy="404.53349282296654" r="0" fill="#ffffb2"><title>1</title></circle><circle cx="245.46650717703346" cy="354.18660287081343" r="0" fill="#ffffb2"><title>1</title></circle><circle cx="245.46650717703346" cy="266.62679425837325" r="0" fill="#ffffb2"><title>1</title></circle><circle cx="245.46650717703346" cy="60.86124401913878" r="0" fill="#ffffb2"><title>1</title></circle><circle cx="257.87081339712915" cy="603.0023923444976" r="0" fill="#ffffb2"><title>1</title></circle><circle cx="257.87081339712915" cy="438.82775119617224" r="0" fill="#ffffb2"><title>1</title></circle><circle cx="257.87081339712915" cy="392.12918660287085" r="2.0741586710573445" fill="#fecc5c"><title>9</title></circle><circle cx="257.87081339712915" cy="389.2105263157895" r="1.691403545127828" fill="#ffffb2"><title>6</title></circle><circle cx="257.87081339712915" cy="378.9952153110048" r="0" fill="#ffffb2"><title>1</title></circle><circle cx="257.87081339712915" cy="374.61722488038276" r="0" fill="#ffffb2"><title>1</title></circle><circle cx="257.87081339712915" cy="352.72727272727275" r="0" fill="#ffffb2"><title>1</title></circle><circle cx="257.87081339712915" cy="282.6794258373206" r="0.6543242095991559" fill="#ffffb2"><title>2</title></circle><circle cx="257.87081339712915" cy="225.76555023923447" r="0" fill="#ffffb2"><title>1</title></circle><circle cx="258.6004784688995" cy="391.3995215311005" r="0" fill="#ffffb2"><title>1</title></circle><circle cx="258.6004784688995" cy="108.28947368421052" r="0" fill="#ffffb2"><title>1</title></circle><circle cx="260.7894736842105" cy="479.688995215311" r="0.6543242095991559" fill="#ffffb2"><title>2</title></circle><circle cx="260.7894736842105" cy="478.9593301435407" r="2.1736179750324034" fill="#fecc5c"><title>10</title></circle><circle cx="260.7894736842105" cy="438.82775119617224" r="1.0370793355286723" fill="#ffffb2"><title>3</title></circle><circle cx="260.7894736842105" cy="410.3708133971292" r="0" fill="#ffffb2"><title>1</title></circle><circle cx="260.7894736842105" cy="405.99282296650716" r="0" fill="#ffffb2"><title>1</title></circle><circle cx="260.7894736842105" cy="405.2631578947369" r="0" fill="#ffffb2"><title>1</title></circle><circle cx="260.7894736842105" cy="392.12918660287085" r="1.691403545127828" fill="#ffffb2"><title>6</title></circle><circle cx="260.7894736842105" cy="389.2105263157895" r="4.572865583809922" fill="#fd8d3c"><title>127</title></circle><circle cx="260.7894736842105" cy="381.9138755980862" r="0" fill="#ffffb2"><title>1</title></circle><circle cx="260.7894736842105" cy="368.05023923444975" r="0.6543242095991559" fill="#ffffb2"><title>2</title></circle><circle cx="260.7894736842105" cy="360.0239234449761" r="0" fill="#ffffb2"><title>1</title></circle><circle cx="260.7894736842105" cy="354.18660287081343" r="0" fill="#ffffb2"><title>1</title></circle><circle cx="260.7894736842105" cy="344.70095693779905" r="0" fill="#ffffb2"><title>1</title></circle><circle cx="260.7894736842105" cy="343.9712918660287" r="0" fill="#ffffb2"><title>1</title></circle><circle cx="260.7894736842105" cy="286.32775119617224" r="0" fill="#ffffb2"><title>1</title></circle><circle cx="260.7894736842105" cy="285.59808612440196" r="0" fill="#ffffb2"><title>1</title></circle><circle cx="260.7894736842105" cy="282.6794258373206" r="0" fill="#ffffb2"><title>1</title></circle><circle cx="260.7894736842105" cy="266.62679425837325" r="0.6543242095991559" fill="#ffffb2"><title>2</title></circle><circle cx="260.7894736842105" cy="226.4952153110048" r="0.6543242095991559" fill="#ffffb2"><title>2</title></circle><circle cx="260.7894736842105" cy="223.57655502392345" r="0" fill="#ffffb2"><title>1</title></circle><circle cx="260.7894736842105" cy="222.11722488038276" r="1.0370793355286723" fill="#ffffb2"><title>3</title></circle><circle cx="260.7894736842105" cy="187.82296650717706" r="0.6543242095991559" fill="#ffffb2"><title>2</title></circle><circle cx="260.7894736842105" cy="176.1483253588517" r="0" fill="#ffffb2"><title>1</title></circle><circle cx="260.7894736842105" cy="162.28468899521533" r="0" fill="#ffffb2"><title>1</title></circle><circle cx="260.7894736842105" cy="143.31339712918663" r="0" fill="#ffffb2"><title>1</title></circle><circle cx="260.7894736842105" cy="75.4545454545455" r="0" fill="#ffffb2"><title>1</title></circle><circle cx="260.7894736842105" cy="44.07894736842104" r="0" fill="#ffffb2"><title>1</title></circle><circle cx="265.16746411483257" cy="384.83253588516743" r="2.1736179750324034" fill="#fecc5c"><title>10</title></circle><circle cx="267.35645933014354" cy="382.64354066985646" r="1.9629726287974678" fill="#ffffb2"><title>8</title></circle><circle cx="267.35645933014354" cy="158.63636363636363" r="0" fill="#ffffb2"><title>1</title></circle><circle cx="268.0861244019138" cy="462.9066985645933" r="0.6543242095991559" fill="#ffffb2"><title>2</title></circle><circle cx="268.0861244019138" cy="461.44736842105266" r="0" fill="#ffffb2"><title>1</title></circle><circle cx="268.0861244019138" cy="457.799043062201" r="0.6543242095991559" fill="#ffffb2"><title>2</title></circle><circle cx="268.0861244019138" cy="405.2631578947369" r="0" fill="#ffffb2"><title>1</title></circle><circle cx="268.0861244019138" cy="389.2105263157895" r="0" fill="#ffffb2"><title>1</title></circle><circle cx="268.0861244019138" cy="381.9138755980862" r="2.674525892867049" fill="#fecc5c"><title>17</title></circle><circle cx="268.0861244019138" cy="360.0239234449761" r="0" fill="#ffffb2"><title>1</title></circle><circle cx="268.0861244019138" cy="176.1483253588517" r="0" fill="#ffffb2"><title>1</title></circle><circle cx="271.0047846889952" cy="392.12918660287085" r="0" fill="#ffffb2"><title>1</title></circle><circle cx="271.0047846889952" cy="378.9952153110048" r="0" fill="#ffffb2"><title>1</title></circle><circle cx="272.46411483253587" cy="377.53588516746413" r="1.5192937654332472" fill="#ffffb2"><title>5</title></circle><circle cx="273.92344497607655" cy="376.07655502392345" r="1.836920290439642" fill="#ffffb2"><title>7</title></circle><circle cx="274.6531100478469" cy="375.3468899521531" r="1.691403545127828" fill="#ffffb2"><title>6</title></circle><circle cx="274.6531100478469" cy="155.71770334928232" r="0" fill="#ffffb2"><title>1</title></circle><circle cx="275.38277511961724" cy="489.17464114832535" r="0" fill="#ffffb2"><title>1</title></circle><circle cx="275.38277511961724" cy="392.12918660287085" r="0" fill="#ffffb2"><title>1</title></circle><circle cx="275.38277511961724" cy="374.61722488038276" r="2.7284828806565002" fill="#fecc5c"><title>18</title></circle><circle cx="275.38277511961724" cy="282.6794258373206" r="0" fill="#ffffb2"><title>1</title></circle><circle cx="275.38277511961724" cy="225.76555023923447" r="0" fill="#ffffb2"><title>1</title></circle><circle cx="275.38277511961724" cy="183.44497607655506" r="0.6543242095991559" fill="#ffffb2"><title>2</title></circle><circle cx="276.1124401913876" cy="373.8875598086124" r="2.2635898595271784" fill="#fecc5c"><title>11</title></circle><circle cx="277.57177033492826" cy="372.42822966507174" r="0" fill="#ffffb2"><title>1</title></circle><circle cx="278.30143540669854" cy="371.69856459330146" r="0" fill="#ffffb2"><title>1</title></circle><circle cx="279.0311004784689" cy="370.9688995215311" r="2.491244500038798" fill="#fecc5c"><title>14</title></circle><circle cx="279.7607655502392" cy="370.2392344497608" r="0.6543242095991559" fill="#ffffb2"><title>2</title></circle><circle cx="281.22009569377985" cy="368.77990430622015" r="0" fill="#ffffb2"><title>1</title></circle><circle cx="281.94976076555025" cy="522.0095693779905" r="0" fill="#ffffb2"><title>1</title></circle><circle cx="281.94976076555025" cy="489.17464114832535" r="0" fill="#ffffb2"><title>1</title></circle><circle cx="281.94976076555025" cy="479.688995215311" r="0" fill="#ffffb2"><title>1</title></circle><circle cx="281.94976076555025" cy="389.2105263157895" r="0.6543242095991559" fill="#ffffb2"><title>2</title></circle><circle cx="281.94976076555025" cy="368.05023923444975" r="1.691403545127828" fill="#ffffb2"><title>6</title></circle><circle cx="281.94976076555025" cy="187.82296650717706" r="0" fill="#ffffb2"><title>1</title></circle><circle cx="281.94976076555025" cy="47.72727272727275" r="0" fill="#ffffb2"><title>1</title></circle><circle cx="283.40909090909093" cy="603.0023923444976" r="0.6543242095991559" fill="#ffffb2"><title>2</title></circle><circle cx="283.40909090909093" cy="366.59090909090907" r="1.5192937654332472" fill="#ffffb2"><title>5</title></circle><circle cx="284.1387559808612" cy="365.8612440191388" r="0.6543242095991559" fill="#ffffb2"><title>2</title></circle><circle cx="285.5980861244019" cy="364.4019138755981" r="2.674525892867049" fill="#fecc5c"><title>17</title></circle><circle cx="287.0574162679426" cy="362.9425837320574" r="1.3086484191983119" fill="#ffffb2"><title>4</title></circle><circle cx="287.7870813397129" cy="489.17464114832535" r="0.6543242095991559" fill="#ffffb2"><title>2</title></circle><circle cx="287.7870813397129" cy="362.2129186602871" r="1.3086484191983119" fill="#ffffb2"><title>4</title></circle><circle cx="287.7870813397129" cy="361.4832535885168" r="0.6543242095991559" fill="#ffffb2"><title>2</title></circle><circle cx="288.5167464114832" cy="489.17464114832535" r="0.6543242095991559" fill="#ffffb2"><title>2</title></circle><circle cx="288.5167464114832" cy="362.2129186602871" r="0.6543242095991559" fill="#ffffb2"><title>2</title></circle><circle cx="288.5167464114832" cy="361.4832535885168" r="0.6543242095991559" fill="#ffffb2"><title>2</title></circle><circle cx="289.2464114832536" cy="360.7535885167464" r="0.6543242095991559" fill="#ffffb2"><title>2</title></circle><circle cx="289.9760765550239" cy="389.2105263157895" r="0" fill="#ffffb2"><title>1</title></circle><circle cx="289.9760765550239" cy="381.9138755980862" r="0" fill="#ffffb2"><title>1</title></circle><circle cx="289.9760765550239" cy="360.0239234449761" r="1.5192937654332472" fill="#ffffb2"><title>5</title></circle><circle cx="295.81339712918657" cy="410.3708133971292" r="1.5192937654332472" fill="#ffffb2"><title>5</title></circle><circle cx="295.81339712918657" cy="404.53349282296654" r="0" fill="#ffffb2"><title>1</title></circle><circle cx="295.81339712918657" cy="389.2105263157895" r="0" fill="#ffffb2"><title>1</title></circle><circle cx="295.81339712918657" cy="354.18660287081343" r="2.0741586710573445" fill="#fecc5c"><title>9</title></circle><circle cx="295.81339712918657" cy="266.62679425837325" r="0" fill="#ffffb2"><title>1</title></circle><circle cx="295.81339712918657" cy="264.4377990430622" r="1.691403545127828" fill="#ffffb2"><title>6</title></circle><circle cx="295.81339712918657" cy="189.28229665071768" r="0" fill="#ffffb2"><title>1</title></circle><circle cx="295.81339712918657" cy="108.28947368421052" r="0" fill="#ffffb2"><title>1</title></circle><circle cx="295.81339712918657" cy="60.86124401913878" r="0" fill="#ffffb2"><title>1</title></circle><circle cx="297.27272727272725" cy="603.0023923444976" r="2.959876101469817" fill="#fecc5c"><title>23</title></circle><circle cx="297.27272727272725" cy="392.12918660287085" r="0" fill="#ffffb2"><title>1</title></circle><circle cx="297.27272727272725" cy="352.72727272727275" r="4.215773910413242" fill="#fd8d3c"><title>87</title></circle><circle cx="297.27272727272725" cy="341.0526315789474" r="0" fill="#ffffb2"><title>1</title></circle><circle cx="297.27272727272725" cy="187.82296650717706" r="0" fill="#ffffb2"><title>1</title></circle><circle cx="297.27272727272725" cy="75.4545454545455" r="1.0370793355286723" fill="#ffffb2"><title>3</title></circle><circle cx="297.27272727272725" cy="47.72727272727275" r="0.6543242095991559" fill="#ffffb2"><title>2</title></circle><circle cx="301.65071770334924" cy="546.8181818181819" r="0" fill="#ffffb2"><title>1</title></circle><circle cx="301.65071770334924" cy="348.34928229665076" r="0" fill="#ffffb2"><title>1</title></circle><circle cx="303.1100478468899" cy="346.8899521531101" r="0" fill="#ffffb2"><title>1</title></circle><circle cx="304.5693779904306" cy="345.4306220095694" r="1.3086484191983119" fill="#ffffb2"><title>4</title></circle><circle cx="305.29904306220095" cy="587.6794258373205" r="0.6543242095991559" fill="#ffffb2"><title>2</title></circle><circle cx="305.29904306220095" cy="479.688995215311" r="1.691403545127828" fill="#ffffb2"><title>6</title></circle><circle cx="305.29904306220095" cy="478.9593301435407" r="0.6543242095991559" fill="#ffffb2"><title>2</title></circle><circle cx="305.29904306220095" cy="389.2105263157895" r="0" fill="#ffffb2"><title>1</title></circle><circle cx="305.29904306220095" cy="344.70095693779905" r="4.736263459817667" fill="#fd8d3c"><title>151</title></circle><circle cx="305.29904306220095" cy="286.32775119617224" r="0" fill="#ffffb2"><title>1</title></circle><circle cx="305.29904306220095" cy="271.7344497607656" r="0" fill="#ffffb2"><title>1</title></circle><circle cx="305.29904306220095" cy="264.4377990430622" r="0" fill="#ffffb2"><title>1</title></circle><circle cx="305.29904306220095" cy="263.7081339712919" r="0.6543242095991559" fill="#ffffb2"><title>2</title></circle><circle cx="305.29904306220095" cy="238.16985645933016" r="1.836920290439642" fill="#ffffb2"><title>7</title></circle><circle cx="305.29904306220095" cy="226.4952153110048" r="1.691403545127828" fill="#ffffb2"><title>6</title></circle><circle cx="305.29904306220095" cy="115.58612440191393" r="0" fill="#ffffb2"><title>1</title></circle><circle cx="306.0287081339713" cy="389.2105263157895" r="0" fill="#ffffb2"><title>1</title></circle><circle cx="306.0287081339713" cy="343.9712918660287" r="0" fill="#ffffb2"><title>1</title></circle><circle cx="308.9473684210526" cy="603.0023923444976" r="0" fill="#ffffb2"><title>1</title></circle><circle cx="308.9473684210526" cy="352.72727272727275" r="0" fill="#ffffb2"><title>1</title></circle><circle cx="308.9473684210526" cy="341.0526315789474" r="0" fill="#ffffb2"><title>1</title></circle><circle cx="363.67224880382776" cy="389.2105263157895" r="0" fill="#ffffb2"><title>1</title></circle><circle cx="363.67224880382776" cy="344.70095693779905" r="0" fill="#ffffb2"><title>1</title></circle><circle cx="363.67224880382776" cy="286.32775119617224" r="0.6543242095991559" fill="#ffffb2"><title>2</title></circle><circle cx="364.40191387559804" cy="389.2105263157895" r="0" fill="#ffffb2"><title>1</title></circle><circle cx="364.40191387559804" cy="285.59808612440196" r="0" fill="#ffffb2"><title>1</title></circle><circle cx="367.3205741626794" cy="392.12918660287085" r="0.6543242095991559" fill="#ffffb2"><title>2</title></circle><circle cx="367.3205741626794" cy="389.2105263157895" r="0" fill="#ffffb2"><title>1</title></circle><circle cx="367.3205741626794" cy="374.61722488038276" r="0" fill="#ffffb2"><title>1</title></circle><circle cx="367.3205741626794" cy="282.6794258373206" r="0.6543242095991559" fill="#ffffb2"><title>2</title></circle><circle cx="367.3205741626794" cy="225.76555023923447" r="0" fill="#ffffb2"><title>1</title></circle><circle cx="378.2655502392344" cy="587.6794258373205" r="0" fill="#ffffb2"><title>1</title></circle><circle cx="378.2655502392344" cy="344.70095693779905" r="0" fill="#ffffb2"><title>1</title></circle><circle cx="378.2655502392344" cy="271.7344497607656" r="0" fill="#ffffb2"><title>1</title></circle><circle cx="378.2655502392344" cy="264.4377990430622" r="0" fill="#ffffb2"><title>1</title></circle><circle cx="383.37320574162675" cy="404.53349282296654" r="0" fill="#ffffb2"><title>1</title></circle><circle cx="383.37320574162675" cy="389.2105263157895" r="0.6543242095991559" fill="#ffffb2"><title>2</title></circle><circle cx="383.37320574162675" cy="354.18660287081343" r="0" fill="#ffffb2"><title>1</title></circle><circle cx="383.37320574162675" cy="266.62679425837325" r="1.0370793355286723" fill="#ffffb2"><title>3</title></circle><circle cx="383.37320574162675" cy="60.86124401913878" r="0" fill="#ffffb2"><title>1</title></circle><circle cx="385.5622009569378" cy="587.6794258373205" r="0" fill="#ffffb2"><title>1</title></circle><circle cx="385.5622009569378" cy="410.3708133971292" r="1.5192937654332472" fill="#ffffb2"><title>5</title></circle><circle cx="385.5622009569378" cy="354.18660287081343" r="1.691403545127828" fill="#ffffb2"><title>6</title></circle><circle cx="385.5622009569378" cy="344.70095693779905" r="0" fill="#ffffb2"><title>1</title></circle><circle cx="385.5622009569378" cy="271.7344497607656" r="0" fill="#ffffb2"><title>1</title></circle><circle cx="385.5622009569378" cy="264.4377990430622" r="1.836920290439642" fill="#ffffb2"><title>7</title></circle><circle cx="386.2918660287081" cy="344.70095693779905" r="0.6543242095991559" fill="#ffffb2"><title>2</title></circle><circle cx="386.2918660287081" cy="263.7081339712919" r="0.6543242095991559" fill="#ffffb2"><title>2</title></circle><circle cx="411.83014354066984" cy="479.688995215311" r="1.691403545127828" fill="#ffffb2"><title>6</title></circle><circle cx="411.83014354066984" cy="344.70095693779905" r="1.836920290439642" fill="#ffffb2"><title>7</title></circle><circle cx="411.83014354066984" cy="238.16985645933016" r="1.836920290439642" fill="#ffffb2"><title>7</title></circle><circle cx="411.83014354066984" cy="226.4952153110048" r="1.691403545127828" fill="#ffffb2"><title>6</title></circle><circle cx="423.5047846889952" cy="479.688995215311" r="1.691403545127828" fill="#ffffb2"><title>6</title></circle><circle cx="423.5047846889952" cy="389.2105263157895" r="0.6543242095991559" fill="#ffffb2"><title>2</title></circle><circle cx="423.5047846889952" cy="344.70095693779905" r="1.691403545127828" fill="#ffffb2"><title>6</title></circle><circle cx="423.5047846889952" cy="238.16985645933016" r="1.691403545127828" fill="#ffffb2"><title>6</title></circle><circle cx="423.5047846889952" cy="226.4952153110048" r="1.9629726287974678" fill="#ffffb2"><title>8</title></circle><circle cx="424.23444976076553" cy="392.12918660287085" r="0" fill="#ffffb2"><title>1</title></circle><circle cx="424.23444976076553" cy="374.61722488038276" r="0" fill="#ffffb2"><title>1</title></circle><circle cx="424.23444976076553" cy="282.6794258373206" r="0" fill="#ffffb2"><title>1</title></circle><circle cx="424.23444976076553" cy="225.76555023923447" r="0" fill="#ffffb2"><title>1</title></circle><circle cx="426.42344497607655" cy="389.2105263157895" r="0" fill="#ffffb2"><title>1</title></circle><circle cx="426.42344497607655" cy="223.57655502392345" r="0" fill="#ffffb2"><title>1</title></circle><circle cx="427.88277511961724" cy="438.82775119617224" r="0.6543242095991559" fill="#ffffb2"><title>2</title></circle><circle cx="427.88277511961724" cy="389.2105263157895" r="1.0370793355286723" fill="#ffffb2"><title>3</title></circle><circle cx="427.88277511961724" cy="222.11722488038276" r="1.0370793355286723" fill="#ffffb2"><title>3</title></circle><circle cx="460.7177033492823" cy="354.18660287081343" r="0" fill="#ffffb2"><title>1</title></circle><circle cx="460.7177033492823" cy="189.28229665071768" r="0" fill="#ffffb2"><title>1</title></circle><circle cx="460.7177033492823" cy="108.28947368421052" r="0" fill="#ffffb2"><title>1</title></circle><circle cx="462.17703349282294" cy="479.688995215311" r="0" fill="#ffffb2"><title>1</title></circle><circle cx="462.17703349282294" cy="389.2105263157895" r="0.6543242095991559" fill="#ffffb2"><title>2</title></circle><circle cx="462.17703349282294" cy="368.05023923444975" r="0" fill="#ffffb2"><title>1</title></circle><circle cx="462.17703349282294" cy="352.72727272727275" r="0" fill="#ffffb2"><title>1</title></circle><circle cx="462.17703349282294" cy="187.82296650717706" r="0.6543242095991559" fill="#ffffb2"><title>2</title></circle><circle cx="466.55502392344494" cy="374.61722488038276" r="0.6543242095991559" fill="#ffffb2"><title>2</title></circle><circle cx="466.55502392344494" cy="183.44497607655506" r="0" fill="#ffffb2"><title>1</title></circle><circle cx="473.8516746411483" cy="389.2105263157895" r="0" fill="#ffffb2"><title>1</title></circle><circle cx="473.8516746411483" cy="381.9138755980862" r="0" fill="#ffffb2"><title>1</title></circle><circle cx="473.8516746411483" cy="176.1483253588517" r="0.6543242095991559" fill="#ffffb2"><title>2</title></circle><circle cx="473.8516746411483" cy="162.28468899521533" r="0" fill="#ffffb2"><title>1</title></circle><circle cx="487.71531100478467" cy="389.2105263157895" r="0" fill="#ffffb2"><title>1</title></circle><circle cx="487.71531100478467" cy="176.1483253588517" r="0" fill="#ffffb2"><title>1</title></circle><circle cx="487.71531100478467" cy="162.28468899521533" r="0" fill="#ffffb2"><title>1</title></circle><circle cx="491.3636363636364" cy="382.64354066985646" r="0" fill="#ffffb2"><title>1</title></circle><circle cx="491.3636363636364" cy="158.63636363636363" r="0" fill="#ffffb2"><title>1</title></circle><circle cx="494.2822966507177" cy="375.3468899521531" r="0" fill="#ffffb2"><title>1</title></circle><circle cx="494.2822966507177" cy="155.71770334928232" r="0" fill="#ffffb2"><title>1</title></circle><circle cx="506.6866028708134" cy="389.2105263157895" r="0" fill="#ffffb2"><title>1</title></circle><circle cx="506.6866028708134" cy="143.31339712918663" r="0" fill="#ffffb2"><title>1</title></circle><circle cx="534.4138755980861" cy="344.70095693779905" r="0" fill="#ffffb2"><title>1</title></circle><circle cx="534.4138755980861" cy="115.58612440191393" r="0" fill="#ffffb2"><title>1</title></circle><circle cx="541.7105263157895" cy="391.3995215311005" r="0" fill="#ffffb2"><title>1</title></circle><circle cx="541.7105263157895" cy="354.18660287081343" r="0" fill="#ffffb2"><title>1</title></circle><circle cx="541.7105263157895" cy="189.28229665071768" r="0" fill="#ffffb2"><title>1</title></circle><circle cx="541.7105263157895" cy="108.28947368421052" r="0.6543242095991559" fill="#ffffb2"><title>2</title></circle><circle cx="574.5454545454545" cy="603.0023923444976" r="0.6543242095991559" fill="#ffffb2"><title>2</title></circle><circle cx="574.5454545454545" cy="389.2105263157895" r="0" fill="#ffffb2"><title>1</title></circle><circle cx="574.5454545454545" cy="352.72727272727275" r="1.0370793355286723" fill="#ffffb2"><title>3</title></circle><circle cx="574.5454545454545" cy="75.4545454545455" r="1.3086484191983119" fill="#ffffb2"><title>4</title></circle><circle cx="589.1387559808612" cy="404.53349282296654" r="0" fill="#ffffb2"><title>1</title></circle><circle cx="589.1387559808612" cy="354.18660287081343" r="0" fill="#ffffb2"><title>1</title></circle><circle cx="589.1387559808612" cy="266.62679425837325" r="0" fill="#ffffb2"><title>1</title></circle><circle cx="589.1387559808612" cy="60.86124401913878" r="0" fill="#ffffb2"><title>1</title></circle><circle cx="602.2727272727273" cy="522.0095693779905" r="0" fill="#ffffb2"><title>1</title></circle><circle cx="602.2727272727273" cy="368.05023923444975" r="0" fill="#ffffb2"><title>1</title></circle><circle cx="602.2727272727273" cy="352.72727272727275" r="0.6543242095991559" fill="#ffffb2"><title>2</title></circle><circle cx="602.2727272727273" cy="47.72727272727275" r="1.0370793355286723" fill="#ffffb2"><title>3</title></circle><circle cx="605.921052631579" cy="389.2105263157895" r="0" fill="#ffffb2"><title>1</title></circle><circle cx="605.921052631579" cy="44.07894736842104" r="0" fill="#ffffb2"><title>1</title></circle><g class="axes" transform="translate(0,630)"><g class="tick" style="opacity: 1;" transform="translate(20,0)"><line y2="6" x2="0"></line><text y="9" x="0" dy=".71em" style="text-anchor: middle;" font-size="8px" fill="white">0</text></g><g class="tick" style="opacity: 1;" transform="translate(92.96650717703349,0)"><line y2="6" x2="0"></line><text y="9" x="0" dy=".71em" style="text-anchor: middle;" font-size="8px" fill="white">100</text></g><g class="tick" style="opacity: 1;" transform="translate(165.93301435406698,0)"><line y2="6" x2="0"></line><text y="9" x="0" dy=".71em" style="text-anchor: middle;" font-size="8px" fill="white">200</text></g><g class="tick" style="opacity: 1;" transform="translate(238.89952153110048,0)"><line y2="6" x2="0"></line><text y="9" x="0" dy=".71em" style="text-anchor: middle;" font-size="8px" fill="white">300</text></g><g class="tick" style="opacity: 1;" transform="translate(311.86602870813397,0)"><line y2="6" x2="0"></line><text y="9" x="0" dy=".71em" style="text-anchor: middle;" font-size="8px" fill="white">400</text></g><g class="tick" style="opacity: 1;" transform="translate(384.8325358851675,0)"><line y2="6" x2="0"></line><text y="9" x="0" dy=".71em" style="text-anchor: middle;" font-size="8px" fill="white">500</text></g><g class="tick" style="opacity: 1;" transform="translate(457.79904306220095,0)"><line y2="6" x2="0"></line><text y="9" x="0" dy=".71em" style="text-anchor: middle;" font-size="8px" fill="white">600</text></g><g class="tick" style="opacity: 1;" transform="translate(530.7655502392345,0)"><line y2="6" x2="0"></line><text y="9" x="0" dy=".71em" style="text-anchor: middle;" font-size="8px" fill="white">700</text></g><g class="tick" style="opacity: 1;" transform="translate(603.7320574162679,0)"><line y2="6" x2="0"></line><text y="9" x="0" dy=".71em" style="text-anchor: middle;" font-size="8px" fill="white">800</text></g><path class="domain" d="M20,6V0H630V6" fill="none" stroke="white" shape-rendering="crispEdges"></path></g><g class="axes" transform="translate(20,0)"><g class="tick" style="opacity: 1;" transform="translate(0,630)"><line x2="-6" y2="0"></line><text x="-9" y="0" dy=".32em" style="text-anchor: end;" font-size="8px" fill="white">0</text></g><g class="tick" style="opacity: 1;" transform="translate(0,557.0334928229665)"><line x2="-6" y2="0"></line><text x="-9" y="0" dy=".32em" style="text-anchor: end;" font-size="8px" fill="white">100</text></g><g class="tick" style="opacity: 1;" transform="translate(0,484.066985645933)"><line x2="-6" y2="0"></line><text x="-9" y="0" dy=".32em" style="text-anchor: end;" font-size="8px" fill="white">200</text></g><g class="tick" style="opacity: 1;" transform="translate(0,411.1004784688995)"><line x2="-6" y2="0"></line><text x="-9" y="0" dy=".32em" style="text-anchor: end;" font-size="8px" fill="white">300</text></g><g class="tick" style="opacity: 1;" transform="translate(0,338.13397129186603)"><line x2="-6" y2="0"></line><text x="-9" y="0" dy=".32em" style="text-anchor: end;" font-size="8px" fill="white">400</text></g><g class="tick" style="opacity: 1;" transform="translate(0,265.1674641148325)"><line x2="-6" y2="0"></line><text x="-9" y="0" dy=".32em" style="text-anchor: end;" font-size="8px" fill="white">500</text></g><g class="tick" style="opacity: 1;" transform="translate(0,192.20095693779905)"><line x2="-6" y2="0"></line><text x="-9" y="0" dy=".32em" style="text-anchor: end;" font-size="8px" fill="white">600</text></g><g class="tick" style="opacity: 1;" transform="translate(0,119.23444976076559)"><line x2="-6" y2="0"></line><text x="-9" y="0" dy=".32em" style="text-anchor: end;" font-size="8px" fill="white">700</text></g><g class="tick" style="opacity: 1;" transform="translate(0,46.267942583732065)"><line x2="-6" y2="0"></line><text x="-9" y="0" dy=".32em" style="text-anchor: end;" font-size="8px" fill="white">800</text></g><path class="domain" d="M-6,20H0V630H-6" fill="none" stroke="white" shape-rendering="crispEdges"></path></g></svg>