<svg width="650" height="650"><rect width="100%" height="100%" fill="black"></rect><circle cx="25.107655502392344" cy="624.8923444976076" r="0.6543242095991559" fill="#ffffb2"><title>2</title></circle><circle cx="25.107655502392344" cy="187.09330143540672" r="0.6543242095991559" fill="#ffffb2"><title>2</title></circle><circle cx="33.133971291866025" cy="616.866028708134" r="0" fill="#ffffb2"><title>1</title></circle><circle cx="33.133971291866025" cy="150.61004784688993" r="0" fill="#ffffb2"><title>1</title></circle><circle cx="33.86363636363636" cy="616.1363636363636" r="0" fill="#ffffb2"><title>1</title></circle><circle cx="33.86363636363636" cy="343.9712918660287" r="0" fill="#ffffb2"><title>1</title></circle><circle cx="37.51196172248804" cy="612.4880382775119" r="0" fill="#ffffb2"><title>1</title></circle><circle cx="37.51196172248804" cy="611.7583732057416" r="0" fill="#ffffb2"><title>1</title></circle><circle cx="37.51196172248804" cy="214.8205741626794" r="0" fill="#ffffb2"><title>1</title></circle><circle cx="38.24162679425837" cy="612.4880382775119" r="0" fill="#ffffb2"><title>1</title></circle><circle cx="38.24162679425837" cy="611.7583732057416" r="0.6543242095991559" fill="#ffffb2"><title>2</title></circle><circle cx="38.24162679425837" cy="567.9784688995215" r="0" fill="#ffffb2"><title>1</title></circle><circle cx="38.24162679425837" cy="271.7344497607656" r="0" fill="#ffffb2"><title>1</title></circle><circle cx="38.24162679425837" cy="214.8205741626794" r="0" fill="#ffffb2"><title>1</title></circle><circle cx="38.24162679425837" cy="147.69138755980867" r="0" fill="#ffffb2"><title>1</title></circle><circle cx="38.24162679425837" cy="144.7727272727273" r="0" fill="#ffffb2"><title>1</title></circle><circle cx="46.99760765550239" cy="603.0023923444976" r="0" fill="#ffffb2"><title>1</title></circle><circle cx="46.99760765550239" cy="324.27033492822966" r="0" fill="#ffffb2"><title>1</title></circle><circle cx="52.83492822966507" cy="597.165071770335" r="0.6543242095991559" fill="#ffffb2"><title>2</title></circle><circle cx="52.83492822966507" cy="536.6028708133971" r="0" fill="#ffffb2"><title>1</title></circle><circle cx="52.83492822966507" cy="179.79665071770336" r="0.6543242095991559" fill="#ffffb2"><title>2</title></circle><circle cx="64.50956937799043" cy="585.4904306220096" r="1.5192937654332472" fill="#ffffb2"><title>5</title></circle><circle cx="64.50956937799043" cy="303.1100478468899" r="1.5192937654332472" fill="#ffffb2"><title>5</title></circle><circle cx="64.50956937799043" cy="121.42344497607661" r="1.5192937654332472" fill="#ffffb2"><title>5</title></circle><circle cx="68.15789473684211" cy="581.8421052631579" r="0" fill="#ffffb2"><title>1</title></circle><circle cx="68.15789473684211" cy="183.44497607655506" r="0" fill="#ffffb2"><title>1</title></circle><circle cx="69.61722488038276" cy="580.3827751196172" r="0" fill="#ffffb2"><title>1</title></circle><circle cx="69.61722488038276" cy="392.12918660287085" r="0" fill="#ffffb2"><title>1</title></circle><circle cx="69.61722488038276" cy="155.71770334928232" r="0" fill="#ffffb2"><title>1</title></circle><circle cx="74.72488038277513" cy="575.2751196172248" r="0.6543242095991559" fill="#ffffb2"><title>2</title></circle><circle cx="74.72488038277513" cy="405.2631578947369" r="0" fill="#ffffb2"><title>1</title></circle><circle cx="74.72488038277513" cy="392.12918660287085" r="0" fill="#ffffb2"><title>1</title></circle><circle cx="74.72488038277513" cy="287.7870813397129" r="0" fill="#ffffb2"><title>1</title></circle><circle cx="74.72488038277513" cy="271.7344497607656" r="0" fill="#ffffb2"><title>1</title></circle><circle cx="74.72488038277513" cy="211.17224880382776" r="0" fill="#ffffb2"><title>1</title></circle><circle cx="82.02153110047846" cy="611.7583732057416" r="0" fill="#ffffb2"><title>1</title></circle><circle cx="82.02153110047846" cy="567.9784688995215" r="1.9629726287974678" fill="#ffffb2"><title>8</title></circle><circle cx="82.02153110047846" cy="567.2488038277512" r="0.6543242095991559" fill="#ffffb2"><title>2</title></circle><circle cx="82.02153110047846" cy="562.1411483253588" r="0" fill="#ffffb2"><title>1</title></circle><circle cx="82.02153110047846" cy="493.5526315789474" r="0" fill="#ffffb2"><title>1</title></circle><circle cx="82.02153110047846" cy="271.7344497607656" r="1.3086484191983119" fill="#ffffb2"><title>4</title></circle><circle cx="82.02153110047846" cy="269.5454545454545" r="0.6543242095991559" fill="#ffffb2"><title>2</title></circle><circle cx="82.02153110047846" cy="264.4377990430622" r="0" fill="#ffffb2"><title>1</title></circle><circle cx="82.02153110047846" cy="261.51913875598086" r="0" fill="#ffffb2"><title>1</title></circle><circle cx="82.02153110047846" cy="250.5741626794258" r="0" fill="#ffffb2"><title>1</title></circle><circle cx="82.02153110047846" cy="214.8205741626794" r="0" fill="#ffffb2"><title>1</title></circle><circle cx="82.02153110047846" cy="149.88038277511964" r="0" fill="#ffffb2"><title>1</title></circle><circle cx="82.02153110047846" cy="147.69138755980867" r="0" fill="#ffffb2"><title>1</title></circle><circle cx="82.02153110047846" cy="144.7727272727273" r="0" fill="#ffffb2"><title>1</title></circle><circle cx="82.7511961722488" cy="567.9784688995215" r="0.6543242095991559" fill="#ffffb2"><title>2</title></circle><circle cx="82.7511961722488" cy="567.2488038277512" r="0.6543242095991559" fill="#ffffb2"><title>2</title></circle><circle cx="82.7511961722488" cy="271.7344497607656" r="0.6543242095991559" fill="#ffffb2"><title>2</title></circle><circle cx="82.7511961722488" cy="269.5454545454545" r="0" fill="#ffffb2"><title>1</title></circle><circle cx="87.85885167464114" cy="567.9784688995215" r="0" fill="#ffffb2"><title>1</title></circle><circle cx="87.85885167464114" cy="562.1411483253588" r="1.3086484191983119" fill="#ffffb2"><title>4</title></circle><circle cx="87.85885167464114" cy="271.7344497607656" r="1.3086484191983119" fill="#ffffb2"><title>4</title></circle><circle cx="87.85885167464114" cy="264.4377990430622" r="0.6543242095991559" fill="#ffffb2"><title>2</title></circle><circle cx="91.50717703349282" cy="558.4928229665072" r="0.6543242095991559" fill="#ffffb2"><title>2</title></circle><circle cx="91.50717703349282" cy="511.0645933014354" r="0" fill="#ffffb2"><title>1</title></circle><circle cx="91.50717703349282" cy="392.12918660287085" r="0" fill="#ffffb2"><title>1</title></circle><circle cx="91.50717703349282" cy="225.76555023923447" r="0" fill="#ffffb2"><title>1</title></circle><circle cx="91.50717703349282" cy="151.33971291866027" r="0" fill="#ffffb2"><title>1</title></circle><circle cx="91.50717703349282" cy="98.07416267942585" r="0" fill="#ffffb2"><title>1</title></circle><circle cx="92.23684210526315" cy="557.7631578947369" r="1.0370793355286723" fill="#ffffb2"><title>3</title></circle><circle cx="92.23684210526315" cy="310.4066985645933" r="0" fill="#ffffb2"><title>1</title></circle><circle cx="92.23684210526315" cy="223.57655502392345" r="0.6543242095991559" fill="#ffffb2"><title>2</title></circle><circle cx="113.39712918660287" cy="597.165071770335" r="0" fill="#ffffb2"><title>1</title></circle><circle cx="113.39712918660287" cy="536.6028708133971" r="0" fill="#ffffb2"><title>1</title></circle><circle cx="113.39712918660287" cy="179.79665071770336" r="0" fill="#ffffb2"><title>1</title></circle><circle cx="114.85645933014355" cy="535.1435406698564" r="2.674525892867049" fill="#fecc5c"><title>17</title></circle><circle cx="114.85645933014355" cy="534.4138755980862" r="0.6543242095991559" fill="#ffffb2"><title>2</title></circle><circle cx="114.85645933014355" cy="514.7129186602871" r="1.9629726287974678" fill="#ffffb2"><title>8</title></circle><circle cx="114.85645933014355" cy="489.17464114832535" r="0" fill="#ffffb2"><title>1</title></circle><circle cx="114.85645933014355" cy="422.04545454545456" r="1.836920290439642" fill="#ffffb2"><title>7</title></circle><circle cx="115.58612440191386" cy="535.1435406698564" r="0.6543242095991559" fill="#ffffb2"><title>2</title></circle><circle cx="115.58612440191386" cy="534.4138755980862" r="0.6543242095991559" fill="#ffffb2"><title>2</title></circle><circle cx="115.58612440191386" cy="514.7129186602871" r="0.6543242095991559" fill="#ffffb2"><title>2</title></circle><circle cx="125.80143540669856" cy="524.1985645933014" r="0" fill="#ffffb2"><title>1</title></circle><circle cx="125.80143540669856" cy="477.5" r="0" fill="#ffffb2"><title>1</title></circle><circle cx="125.80143540669856" cy="308.94736842105266" r="0" fill="#ffffb2"><title>1</title></circle><circle cx="126.5311004784689" cy="523.4688995215311" r="0" fill="#ffffb2"><title>1</title></circle><circle cx="126.5311004784689" cy="220.65789473684214" r="0" fill="#ffffb2"><title>1</title></circle><circle cx="127.26076555023924" cy="522.7392344497607" r="0.6543242095991559" fill="#ffffb2"><title>2</title></circle><circle cx="127.26076555023924" cy="279.7607655502392" r="0" fill="#ffffb2"><title>1</title></circle><circle cx="127.26076555023924" cy="251.3038277511962" r="0" fill="#ffffb2"><title>1</title></circle><circle cx="127.26076555023924" cy="249.8444976076555" r="0" fill="#ffffb2"><title>1</title></circle><circle cx="128.7200956937799" cy="521.2799043062201" r="0.6543242095991559" fill="#ffffb2"><title>2</title></circle><circle cx="128.7200956937799" cy="438.82775119617224" r="0" fill="#ffffb2"><title>1</title></circle><circle cx="128.7200956937799" cy="392.12918660287085" r="0" fill="#ffffb2"><title>1</title></circle><circle cx="128.7200956937799" cy="337.4043062200957" r="0" fill="#ffffb2"><title>1</title></circle><circle cx="128.7200956937799" cy="222.11722488038276" r="0" fill="#ffffb2"><title>1</title></circle><circle cx="130.1794258373206" cy="519.8205741626795" r="1.0370793355286723" fill="#ffffb2"><title>3</title></circle><circle cx="130.1794258373206" cy="464.36602870813397" r="0" fill="#ffffb2"><title>1</title></circle><circle cx="130.1794258373206" cy="462.17703349282294" r="0" fill="#ffffb2"><title>1</title></circle><circle cx="130.1794258373206" cy="303.1100478468899" r="0" fill="#ffffb2"><title>1</title></circle><circle cx="130.1794258373206" cy="290.7057416267943" r="0" fill="#ffffb2"><title>1</title></circle><circle cx="130.1794258373206" cy="159.36602870813402" r="0" fill="#ffffb2"><title>1</title></circle><circle cx="130.1794258373206" cy="121.42344497607661" r="0" fill="#ffffb2"><title>1</title></circle><circle cx="130.1794258373206" cy="78.37320574162686" r="1.0370793355286723" fill="#ffffb2"><title>3</title></circle><circle cx="135.28708133971293" cy="535.1435406698564" r="1.9629726287974678" fill="#ffffb2"><title>8</title></circle><circle cx="135.28708133971293" cy="534.4138755980862" r="0.6543242095991559" fill="#ffffb2"><title>2</title></circle><circle cx="135.28708133971293" cy="514.7129186602871" r="1.9629726287974678" fill="#ffffb2"><title>8</title></circle><circle cx="135.28708133971293" cy="422.04545454545456" r="1.0370793355286723" fill="#ffffb2"><title>3</title></circle><circle cx="138.20574162679424" cy="511.79425837320576" r="0.6543242095991559" fill="#ffffb2"><title>2</title></circle><circle cx="138.20574162679424" cy="502.3086124401914" r="0" fill="#ffffb2"><title>1</title></circle><circle cx="138.20574162679424" cy="334.4856459330143" r="0.6543242095991559" fill="#ffffb2"><title>2</title></circle><circle cx="138.93540669856458" cy="558.4928229665072" r="0" fill="#ffffb2"><title>1</title></circle><circle cx="138.93540669856458" cy="511.0645933014354" r="0" fill="#ffffb2"><title>1</title></circle><circle cx="138.93540669856458" cy="392.12918660287085" r="0" fill="#ffffb2"><title>1</title></circle><circle cx="138.93540669856458" cy="151.33971291866027" r="0" fill="#ffffb2"><title>1</title></circle><circle cx="138.93540669856458" cy="98.07416267942585" r="0" fill="#ffffb2"><title>1</title></circle><circle cx="147.69138755980862" cy="511.79425837320576" r="0" fill="#ffffb2"><title>1</title></circle><circle cx="147.69138755980862" cy="502.3086124401914" r="1.0370793355286723" fill="#ffffb2"><title>3</title></circle><circle cx="147.69138755980862" cy="334.4856459330143" r="1.0370793355286723" fill="#ffffb2"><title>3</title></circle><circle cx="153.5287081339713" cy="496.4712918660287" r="0" fill="#ffffb2"><title>1</title></circle><circle cx="153.5287081339713" cy="222.8468899521531" r="0" fill="#ffffb2"><title>1</title></circle><circle cx="154.2583732057416" cy="495.7416267942584" r="0.6543242095991559" fill="#ffffb2"><title>2</title></circle><circle cx="154.2583732057416" cy="204.6052631578948" r="0" fill="#ffffb2"><title>1</title></circle><circle cx="154.2583732057416" cy="158.63636363636363" r="0" fill="#ffffb2"><title>1</title></circle><circle cx="156.44736842105263" cy="567.9784688995215" r="0" fill="#ffffb2"><title>1</title></circle><circle cx="156.44736842105263" cy="493.5526315789474" r="1.836920290439642" fill="#ffffb2"><title>7</title></circle><circle cx="156.44736842105263" cy="271.7344497607656" r="1.0370793355286723" fill="#ffffb2"><title>3</title></circle><circle cx="156.44736842105263" cy="269.5454545454545" r="1.0370793355286723" fill="#ffffb2"><title>3</title></circle><circle cx="156.44736842105263" cy="250.5741626794258" r="0" fill="#ffffb2"><title>1</title></circle><circle cx="156.44736842105263" cy="220.65789473684214" r="0" fill="#ffffb2"><title>1</title></circle><circle cx="156.44736842105263" cy="214.8205741626794" r="0.6543242095991559" fill="#ffffb2"><title>2</title></circle><circle cx="160.82535885167462" cy="535.1435406698564" r="0" fill="#ffffb2"><title>1</title></circle><circle cx="160.82535885167462" cy="489.17464114832535" r="1.9629726287974678" fill="#ffffb2"><title>8</title></circle><circle cx="160.82535885167462" cy="392.12918660287085" r="0.6543242095991559" fill="#ffffb2"><title>2</title></circle><circle cx="160.82535885167462" cy="260.0598086124402" r="0.6543242095991559" fill="#ffffb2"><title>2</title></circle><circle cx="160.82535885167462" cy="248.38516746411483" r="0" fill="#ffffb2"><title>1</title></circle><circle cx="160.82535885167462" cy="222.11722488038276" r="0" fill="#ffffb2"><title>1</title></circle><circle cx="160.82535885167462" cy="220.65789473684214" r="1.0370793355286723" fill="#ffffb2"><title>3</title></circle><circle cx="160.82535885167462" cy="190.74162679425842" r="0" fill="#ffffb2"><title>1</title></circle><circle cx="160.82535885167462" cy="174.68899521531102" r="0" fill="#ffffb2"><title>1</title></circle><circle cx="160.82535885167462" cy="98.07416267942585" r="0" fill="#ffffb2"><title>1</title></circle><circle cx="168.12200956937798" cy="481.87799043062205" r="1.0370793355286723" fill="#ffffb2"><title>3</title></circle><circle cx="168.12200956937798" cy="392.12918660287085" r="0.6543242095991559" fill="#ffffb2"><title>2</title></circle><circle cx="168.12200956937798" cy="303.1100478468899" r="0" fill="#ffffb2"><title>1</title></circle><circle cx="168.12200956937798" cy="238.16985645933016" r="0" fill="#ffffb2"><title>1</title></circle><circle cx="168.12200956937798" cy="155.71770334928232" r="0" fill="#ffffb2"><title>1</title></circle><circle cx="171.04066985645932" cy="478.9593301435407" r="0.6543242095991559" fill="#ffffb2"><title>2</title></circle><circle cx="171.04066985645932" cy="343.9712918660287" r="0" fill="#ffffb2"><title>1</title></circle><circle cx="171.04066985645932" cy="286.32775119617224" r="0" fill="#ffffb2"><title>1</title></circle><circle cx="171.04066985645932" cy="256.41148325358853" r="0" fill="#ffffb2"><title>1</title></circle><circle cx="172.5" cy="524.1985645933014" r="0" fill="#ffffb2"><title>1</title></circle><circle cx="172.5" cy="477.5" r="0" fill="#ffffb2"><title>1</title></circle><circle cx="172.5" cy="308.94736842105266" r="0" fill="#ffffb2"><title>1</title></circle><circle cx="184.17464114832535" cy="465.82535885167465" r="0" fill="#ffffb2"><title>1</title></circle><circle cx="184.17464114832535" cy="150.61004784688993" r="0" fill="#ffffb2"><title>1</title></circle><circle cx="185.63397129186603" cy="519.8205741626795" r="0" fill="#ffffb2"><title>1</title></circle><circle cx="185.63397129186603" cy="464.36602870813397" r="1.0370793355286723" fill="#ffffb2"><title>3</title></circle><circle cx="185.63397129186603" cy="462.17703349282294" r="0" fill="#ffffb2"><title>1</title></circle><circle cx="185.63397129186603" cy="159.36602870813402" r="1.0370793355286723" fill="#ffffb2"><title>3</title></circle><circle cx="185.63397129186603" cy="78.37320574162686" r="0" fill="#ffffb2"><title>1</title></circle><circle cx="187.82296650717703" cy="519.8205741626795" r="0" fill="#ffffb2"><title>1</title></circle><circle cx="187.82296650717703" cy="464.36602870813397" r="0" fill="#ffffb2"><title>1</title></circle><circle cx="187.82296650717703" cy="462.17703349282294" r="0" fill="#ffffb2"><title>1</title></circle><circle cx="187.82296650717703" cy="159.36602870813402" r="0" fill="#ffffb2"><title>1</title></circle><circle cx="187.82296650717703" cy="78.37320574162686" r="0" fill="#ffffb2"><title>1</title></circle><circle cx="194.38995215311002" cy="455.61004784689" r="0" fill="#ffffb2"><title>1</title></circle><circle cx="194.38995215311002" cy="345.4306220095694" r="0" fill="#ffffb2"><title>1</title></circle><circle cx="194.38995215311002" cy="343.24162679425837" r="0" fill="#ffffb2"><title>1</title></circle><circle cx="197.30861244019138" cy="452.6913875598086" r="0" fill="#ffffb2"><title>1</title></circle><circle cx="197.30861244019138" cy="179.79665071770336" r="0" fill="#ffffb2"><title>1</title></circle><circle cx="198.0382775119617" cy="451.9617224880383" r="0" fill="#ffffb2"><title>1</title></circle><circle cx="198.0382775119617" cy="222.11722488038276" r="0" fill="#ffffb2"><title>1</title></circle><circle cx="198.76794258373207" cy="451.23205741626793" r="0" fill="#ffffb2"><title>1</title></circle><circle cx="198.76794258373207" cy="256.41148325358853" r="0" fill="#ffffb2"><title>1</title></circle><circle cx="206.79425837320574" cy="443.2057416267943" r="0.6543242095991559" fill="#ffffb2"><title>2</title></circle><circle cx="206.79425837320574" cy="325.72966507177034" r="0" fill="#ffffb2"><title>1</title></circle><circle cx="206.79425837320574" cy="155.71770334928232" r="0" fill="#ffffb2"><title>1</title></circle><circle cx="211.17224880382773" cy="521.2799043062201" r="0" fill="#ffffb2"><title>1</title></circle><circle cx="211.17224880382773" cy="438.82775119617224" r="3.4583666292706656" fill="#fecc5c"><title>39</title></circle><circle cx="211.17224880382773" cy="424.96411483253587" r="0" fill="#ffffb2"><title>1</title></circle><circle cx="211.17224880382773" cy="392.12918660287085" r="2.674525892867049" fill="#fecc5c"><title>17</title></circle><circle cx="211.17224880382773" cy="389.2105263157895" r="0.6543242095991559" fill="#ffffb2"><title>2</title></circle><circle cx="211.17224880382773" cy="313.32535885167465" r="0" fill="#ffffb2"><title>1</title></circle><circle cx="211.17224880382773" cy="222.11722488038276" r="3.382807090255656" fill="#fecc5c"><title>36</title></circle><circle cx="211.17224880382773" cy="220.65789473684214" r="0" fill="#ffffb2"><title>1</title></circle><circle cx="211.17224880382773" cy="155.71770334928232" r="0" fill="#ffffb2"><title>1</title></circle><circle cx="212.6315789473684" cy="437.36842105263156" r="0.6543242095991559" fill="#ffffb2"><title>2</title></circle><circle cx="212.6315789473684" cy="324.27033492822966" r="0.6543242095991559" fill="#ffffb2"><title>2</title></circle><circle cx="214.0909090909091" cy="435.9090909090909" r="0.6543242095991559" fill="#ffffb2"><title>2</title></circle><circle cx="214.0909090909091" cy="152.799043062201" r="0.6543242095991559" fill="#ffffb2"><title>2</title></circle><circle cx="220.65789473684208" cy="429.3421052631579" r="0" fill="#ffffb2"><title>1</title></circle><circle cx="220.65789473684208" cy="165.20334928229664" r="0" fill="#ffffb2"><title>1</title></circle><circle cx="221.38755980861245" cy="428.6124401913876" r="0" fill="#ffffb2"><title>1</title></circle><circle cx="221.38755980861245" cy="333.75598086124404" r="0" fill="#ffffb2"><title>1</title></circle><circle cx="224.30622009569376" cy="425.6937799043062" r="0" fill="#ffffb2"><title>1</title></circle><circle cx="224.30622009569376" cy="179.79665071770336" r="0" fill="#ffffb2"><title>1</title></circle><circle cx="225.03588516746413" cy="438.82775119617224" r="0" fill="#ffffb2"><title>1</title></circle><circle cx="225.03588516746413" cy="424.96411483253587" r="0.6543242095991559" fill="#ffffb2"><title>2</title></circle><circle cx="225.03588516746413" cy="222.11722488038276" r="0.6543242095991559" fill="#ffffb2"><title>2</title></circle><circle cx="227.95454545454544" cy="535.1435406698564" r="1.836920290439642" fill="#ffffb2"><title>7</title></circle><circle cx="227.95454545454544" cy="514.7129186602871" r="1.0370793355286723" fill="#ffffb2"><title>3</title></circle><circle cx="227.95454545454544" cy="422.04545454545456" r="1.9629726287974678" fill="#ffffb2"><title>8</title></circle><circle cx="227.95454545454544" cy="392.12918660287085" r="0" fill="#ffffb2"><title>1</title></circle><circle cx="227.95454545454544" cy="222.11722488038276" r="0" fill="#ffffb2"><title>1</title></circle><circle cx="244.00717703349284" cy="405.99282296650716" r="1.0370793355286723" fill="#ffffb2"><title>3</title></circle><circle cx="244.00717703349284" cy="392.12918660287085" r="0" fill="#ffffb2"><title>1</title></circle><circle cx="244.00717703349284" cy="287.0574162679426" r="0.6543242095991559" fill="#ffffb2"><title>2</title></circle><circle cx="244.00717703349284" cy="158.63636363636363" r="0" fill="#ffffb2"><title>1</title></circle><circle cx="244.73684210526315" cy="575.2751196172248" r="0" fill="#ffffb2"><title>1</title></circle><circle cx="244.73684210526315" cy="405.2631578947369" r="1.3086484191983119" fill="#ffffb2"><title>4</title></circle><circle cx="244.73684210526315" cy="287.7870813397129" r="0.6543242095991559" fill="#ffffb2"><title>2</title></circle><circle cx="244.73684210526315" cy="264.4377990430622" r="0.6543242095991559" fill="#ffffb2"><title>2</title></circle><circle cx="244.73684210526315" cy="211.17224880382776" r="0" fill="#ffffb2"><title>1</title></circle><circle cx="247.6555023923445" cy="402.3444976076555" r="0.6543242095991559" fill="#ffffb2"><title>2</title></circle><circle cx="247.6555023923445" cy="287.7870813397129" r="0.6543242095991559" fill="#ffffb2"><title>2</title></circle><circle cx="257.87081339712915" cy="580.3827751196172" r="0" fill="#ffffb2"><title>1</title></circle><circle cx="257.87081339712915" cy="575.2751196172248" r="0" fill="#ffffb2"><title>1</title></circle><circle cx="257.87081339712915" cy="558.4928229665072" r="0" fill="#ffffb2"><title>1</title></circle><circle cx="257.87081339712915" cy="521.2799043062201" r="0" fill="#ffffb2"><title>1</title></circle><circle cx="257.87081339712915" cy="511.0645933014354" r="0" fill="#ffffb2"><title>1</title></circle><circle cx="257.87081339712915" cy="489.17464114832535" r="0.6543242095991559" fill="#ffffb2"><title>2</title></circle><circle cx="257.87081339712915" cy="481.87799043062205" r="0.6543242095991559" fill="#ffffb2"><title>2</title></circle><circle cx="257.87081339712915" cy="438.82775119617224" r="2.674525892867049" fill="#fecc5c"><title>17</title></circle><circle cx="257.87081339712915" cy="422.04545454545456" r="0" fill="#ffffb2"><title>1</title></circle><circle cx="257.87081339712915" cy="405.99282296650716" r="0" fill="#ffffb2"><title>1</title></circle><circle cx="257.87081339712915" cy="392.12918660287085" r="4.062995665507982" fill="#fd8d3c"><title>74</title></circle><circle cx="257.87081339712915" cy="343.9712918660287" r="0.6543242095991559" fill="#ffffb2"><title>2</title></circle><circle cx="257.87081339712915" cy="313.32535885167465" r="0" fill="#ffffb2"><title>1</title></circle><circle cx="257.87081339712915" cy="303.1100478468899" r="0" fill="#ffffb2"><title>1</title></circle><circle cx="257.87081339712915" cy="300.1913875598087" r="0" fill="#ffffb2"><title>1</title></circle><circle cx="257.87081339712915" cy="287.0574162679426" r="0" fill="#ffffb2"><title>1</title></circle><circle cx="257.87081339712915" cy="286.32775119617224" r="1.5192937654332472" fill="#ffffb2"><title>5</title></circle><circle cx="257.87081339712915" cy="282.6794258373206" r="1.5192937654332472" fill="#ffffb2"><title>5</title></circle><circle cx="257.87081339712915" cy="271.7344497607656" r="1.0370793355286723" fill="#ffffb2"><title>3</title></circle><circle cx="257.87081339712915" cy="266.62679425837325" r="0" fill="#ffffb2"><title>1</title></circle><circle cx="257.87081339712915" cy="238.16985645933016" r="0" fill="#ffffb2"><title>1</title></circle><circle cx="257.87081339712915" cy="223.57655502392345" r="0" fill="#ffffb2"><title>1</title></circle><circle cx="257.87081339712915" cy="222.11722488038276" r="3.5722382787254903" fill="#fecc5c"><title>44</title></circle><circle cx="257.87081339712915" cy="220.65789473684214" r="1.0370793355286723" fill="#ffffb2"><title>3</title></circle><circle cx="257.87081339712915" cy="211.17224880382776" r="0" fill="#ffffb2"><title>1</title></circle><circle cx="257.87081339712915" cy="190.74162679425842" r="0" fill="#ffffb2"><title>1</title></circle><circle cx="257.87081339712915" cy="179.79665071770336" r="1.3086484191983119" fill="#ffffb2"><title>4</title></circle><circle cx="257.87081339712915" cy="176.1483253588517" r="0" fill="#ffffb2"><title>1</title></circle><circle cx="257.87081339712915" cy="155.71770334928232" r="0" fill="#ffffb2"><title>1</title></circle><circle cx="257.87081339712915" cy="151.33971291866027" r="0" fill="#ffffb2"><title>1</title></circle><circle cx="257.87081339712915" cy="141.85406698564594" r="0.6543242095991559" fill="#ffffb2"><title>2</title></circle><circle cx="257.87081339712915" cy="115.58612440191393" r="0.6543242095991559" fill="#ffffb2"><title>2</title></circle><circle cx="257.87081339712915" cy="98.07416267942585" r="1.0370793355286723" fill="#ffffb2"><title>3</title></circle><circle cx="257.87081339712915" cy="62.32057416267946" r="0" fill="#ffffb2"><title>1</title></circle><circle cx="260.7894736842105" cy="438.82775119617224" r="0.6543242095991559" fill="#ffffb2"><title>2</title></circle><circle cx="260.7894736842105" cy="389.2105263157895" r="2.6172968383966237" fill="#fecc5c"><title>16</title></circle><circle cx="260.7894736842105" cy="343.9712918660287" r="0.6543242095991559" fill="#ffffb2"><title>2</title></circle><circle cx="260.7894736842105" cy="333.0263157894737" r="0" fill="#ffffb2"><title>1</title></circle><circle cx="260.7894736842105" cy="292.1650717703349" r="0" fill="#ffffb2"><title>1</title></circle><circle cx="260.7894736842105" cy="287.7870813397129" r="0.6543242095991559" fill="#ffffb2"><title>2</title></circle><circle cx="260.7894736842105" cy="287.0574162679426" r="0" fill="#ffffb2"><title>1</title></circle><circle cx="260.7894736842105" cy="285.59808612440196" r="0" fill="#ffffb2"><title>1</title></circle><circle cx="260.7894736842105" cy="282.6794258373206" r="0.6543242095991559" fill="#ffffb2"><title>2</title></circle><circle cx="260.7894736842105" cy="275.38277511961724" r="0" fill="#ffffb2"><title>1</title></circle><circle cx="260.7894736842105" cy="266.62679425837325" r="0" fill="#ffffb2"><title>1</title></circle><circle cx="260.7894736842105" cy="238.16985645933016" r="0" fill="#ffffb2"><title>1</title></circle><circle cx="260.7894736842105" cy="222.11722488038276" r="1.0370793355286723" fill="#ffffb2"><title>3</title></circle><circle cx="264.4377990430622" cy="385.5622009569378" r="0" fill="#ffffb2"><title>1</title></circle><circle cx="264.4377990430622" cy="381.9138755980862" r="0" fill="#ffffb2"><title>1</title></circle><circle cx="264.4377990430622" cy="333.0263157894737" r="0" fill="#ffffb2"><title>1</title></circle><circle cx="268.0861244019138" cy="385.5622009569378" r="0" fill="#ffffb2"><title>1</title></circle><circle cx="268.0861244019138" cy="381.9138755980862" r="1.691403545127828" fill="#ffffb2"><title>6</title></circle><circle cx="268.0861244019138" cy="354.18660287081343" r="0" fill="#ffffb2"><title>1</title></circle><circle cx="268.0861244019138" cy="333.0263157894737" r="1.0370793355286723" fill="#ffffb2"><title>3</title></circle><circle cx="268.0861244019138" cy="292.1650717703349" r="0.6543242095991559" fill="#ffffb2"><title>2</title></circle><circle cx="268.0861244019138" cy="266.62679425837325" r="0" fill="#ffffb2"><title>1</title></circle><circle cx="268.81578947368416" cy="381.18421052631584" r="0.6543242095991559" fill="#ffffb2"><title>2</title></circle><circle cx="268.81578947368416" cy="176.1483253588517" r="0.6543242095991559" fill="#ffffb2"><title>2</title></circle><circle cx="287.0574162679426" cy="362.9425837320574" r="0" fill="#ffffb2"><title>1</title></circle><circle cx="287.0574162679426" cy="214.09090909090912" r="0" fill="#ffffb2"><title>1</title></circle><circle cx="295.81339712918657" cy="381.9138755980862" r="0" fill="#ffffb2"><title>1</title></circle><circle cx="295.81339712918657" cy="354.18660287081343" r="0" fill="#ffffb2"><title>1</title></circle><circle cx="295.81339712918657" cy="292.1650717703349" r="0" fill="#ffffb2"><title>1</title></circle><circle cx="297.27272727272725" cy="352.72727272727275" r="0.6543242095991559" fill="#ffffb2"><title>2</title></circle><circle cx="297.27272727272725" cy="308.94736842105266" r="0.6543242095991559" fill="#ffffb2"><title>2</title></circle><circle cx="304.5693779904306" cy="455.61004784689" r="0" fill="#ffffb2"><title>1</title></circle><circle cx="304.5693779904306" cy="345.4306220095694" r="1.0370793355286723" fill="#ffffb2"><title>3</title></circle><circle cx="304.5693779904306" cy="343.24162679425837" r="1.0370793355286723" fill="#ffffb2"><title>3</title></circle><circle cx="306.0287081339713" cy="616.1363636363636" r="0" fill="#ffffb2"><title>1</title></circle><circle cx="306.0287081339713" cy="478.9593301435407" r="0" fill="#ffffb2"><title>1</title></circle><circle cx="306.0287081339713" cy="392.12918660287085" r="0.6543242095991559" fill="#ffffb2"><title>2</title></circle><circle cx="306.0287081339713" cy="389.2105263157895" r="0.6543242095991559" fill="#ffffb2"><title>2</title></circle><circle cx="306.0287081339713" cy="343.9712918660287" r="2.2635898595271784" fill="#fecc5c"><title>11</title></circle><circle cx="306.0287081339713" cy="286.32775119617224" r="0" fill="#ffffb2"><title>1</title></circle><circle cx="306.0287081339713" cy="282.6794258373206" r="0.6543242095991559" fill="#ffffb2"><title>2</title></circle><circle cx="306.0287081339713" cy="271.7344497607656" r="0.6543242095991559" fill="#ffffb2"><title>2</title></circle><circle cx="306.0287081339713" cy="141.85406698564594" r="0.6543242095991559" fill="#ffffb2"><title>2</title></circle><circle cx="306.75837320574163" cy="455.61004784689" r="0" fill="#ffffb2"><title>1</title></circle><circle cx="306.75837320574163" cy="345.4306220095694" r="1.0370793355286723" fill="#ffffb2"><title>3</title></circle><circle cx="306.75837320574163" cy="343.24162679425837" r="2.674525892867049" fill="#fecc5c"><title>17</title></circle><circle cx="306.75837320574163" cy="300.1913875598087" r="0" fill="#ffffb2"><title>1</title></circle><circle cx="306.75837320574163" cy="196.57894736842104" r="0" fill="#ffffb2"><title>1</title></circle><circle cx="306.75837320574163" cy="187.82296650717706" r="0" fill="#ffffb2"><title>1</title></circle><circle cx="312.5956937799043" cy="521.2799043062201" r="0" fill="#ffffb2"><title>1</title></circle><circle cx="312.5956937799043" cy="337.4043062200957" r="0.6543242095991559" fill="#ffffb2"><title>2</title></circle><circle cx="313.3253588516746" cy="336.6746411483254" r="0" fill="#ffffb2"><title>1</title></circle><circle cx="314.055023923445" cy="335.944976076555" r="0" fill="#ffffb2"><title>1</title></circle><circle cx="315.5143540669857" cy="511.79425837320576" r="0.6543242095991559" fill="#ffffb2"><title>2</title></circle><circle cx="315.5143540669857" cy="502.3086124401914" r="1.0370793355286723" fill="#ffffb2"><title>3</title></circle><circle cx="315.5143540669857" cy="334.4856459330143" r="2.345727754726984" fill="#fecc5c"><title>12</title></circle><circle cx="316.24401913875596" cy="428.6124401913876" r="0" fill="#ffffb2"><title>1</title></circle><circle cx="316.24401913875596" cy="333.75598086124404" r="0.6543242095991559" fill="#ffffb2"><title>2</title></circle><circle cx="316.9736842105263" cy="389.2105263157895" r="0" fill="#ffffb2"><title>1</title></circle><circle cx="316.9736842105263" cy="385.5622009569378" r="0" fill="#ffffb2"><title>1</title></circle><circle cx="316.9736842105263" cy="381.9138755980862" r="1.0370793355286723" fill="#ffffb2"><title>3</title></circle><circle cx="316.9736842105263" cy="333.0263157894737" r="1.5192937654332472" fill="#ffffb2"><title>5</title></circle><circle cx="316.9736842105263" cy="168.122009569378" r="0" fill="#ffffb2"><title>1</title></circle><circle cx="319.1626794258373" cy="330.8373205741627" r="0" fill="#ffffb2"><title>1</title></circle><circle cx="319.1626794258373" cy="132.36842105263162" r="0" fill="#ffffb2"><title>1</title></circle><circle cx="319.89234449760767" cy="330.10765550239233" r="1.5192937654332472" fill="#ffffb2"><title>5</title></circle><circle cx="319.89234449760767" cy="37.51196172248808" r="0.6543242095991559" fill="#ffffb2"><title>2</title></circle><circle cx="321.35167464114835" cy="328.64832535885165" r="0" fill="#ffffb2"><title>1</title></circle><circle cx="322.811004784689" cy="327.188995215311" r="1.3086484191983119" fill="#ffffb2"><title>4</title></circle><circle cx="324.27033492822966" cy="443.2057416267943" r="0" fill="#ffffb2"><title>1</title></circle><circle cx="324.27033492822966" cy="325.72966507177034" r="2.2635898595271784" fill="#fecc5c"><title>11</title></circle><circle cx="325" cy="325" r="1.5192937654332472" fill="#ffffb2"><title>5</title></circle><circle cx="325.72966507177034" cy="603.0023923444976" r="0" fill="#ffffb2"><title>1</title></circle><circle cx="325.72966507177034" cy="437.36842105263156" r="0.6543242095991559" fill="#ffffb2"><title>2</title></circle><circle cx="325.72966507177034" cy="324.27033492822966" r="1.836920290439642" fill="#ffffb2"><title>7</title></circle><circle cx="331.566985645933" cy="318.433014354067" r="0.6543242095991559" fill="#ffffb2"><title>2</title></circle><circle cx="332.29665071770336" cy="317.70334928229664" r="1.3086484191983119" fill="#ffffb2"><title>4</title></circle><circle cx="333.755980861244" cy="316.244019138756" r="1.0370793355286723" fill="#ffffb2"><title>3</title></circle><circle cx="336.67464114832535" cy="438.82775119617224" r="0" fill="#ffffb2"><title>1</title></circle><circle cx="336.67464114832535" cy="392.12918660287085" r="0" fill="#ffffb2"><title>1</title></circle><circle cx="336.67464114832535" cy="313.32535885167465" r="0.6543242095991559" fill="#ffffb2"><title>2</title></circle><circle cx="338.133971291866" cy="311.866028708134" r="0" fill="#ffffb2"><title>1</title></circle><circle cx="339.5933014354067" cy="557.7631578947369" r="0" fill="#ffffb2"><title>1</title></circle><circle cx="339.5933014354067" cy="310.4066985645933" r="0" fill="#ffffb2"><title>1</title></circle><circle cx="341.05263157894734" cy="524.1985645933014" r="0" fill="#ffffb2"><title>1</title></circle><circle cx="341.05263157894734" cy="477.5" r="0" fill="#ffffb2"><title>1</title></circle><circle cx="341.05263157894734" cy="352.72727272727275" r="0.6543242095991559" fill="#ffffb2"><title>2</title></circle><circle cx="341.05263157894734" cy="308.94736842105266" r="2.2635898595271784" fill="#fecc5c"><title>11</title></circle><circle cx="345.43062200956933" cy="304.56937799043067" r="0" fill="#ffffb2"><title>1</title></circle><circle cx="346.16028708133973" cy="303.83971291866027" r="2.674525892867049" fill="#fecc5c"><title>17</title></circle><circle cx="346.8899521531101" cy="585.4904306220096" r="1.5192937654332472" fill="#ffffb2"><title>5</title></circle><circle cx="346.8899521531101" cy="519.8205741626795" r="0" fill="#ffffb2"><title>1</title></circle><circle cx="346.8899521531101" cy="481.87799043062205" r="0" fill="#ffffb2"><title>1</title></circle><circle cx="346.8899521531101" cy="392.12918660287085" r="0" fill="#ffffb2"><title>1</title></circle><circle cx="346.8899521531101" cy="303.1100478468899" r="2.7795218126684818" fill="#fecc5c"><title>19</title></circle><circle cx="346.8899521531101" cy="121.42344497607661" r="1.836920290439642" fill="#ffffb2"><title>7</title></circle><circle cx="346.8899521531101" cy="78.37320574162686" r="0" fill="#ffffb2"><title>1</title></circle><circle cx="349.8086124401913" cy="392.12918660287085" r="0" fill="#ffffb2"><title>1</title></circle><circle cx="349.8086124401913" cy="343.24162679425837" r="0" fill="#ffffb2"><title>1</title></circle><circle cx="349.8086124401913" cy="300.1913875598087" r="3.5934524364905918" fill="#fecc5c"><title>45</title></circle><circle cx="351.26794258373207" cy="298.73205741626793" r="0.6543242095991559" fill="#ffffb2"><title>2</title></circle><circle cx="351.26794258373207" cy="39.700956937799106" r="0" fill="#ffffb2"><title>1</title></circle><circle cx="351.99760765550235" cy="298.00239234449765" r="0" fill="#ffffb2"><title>1</title></circle><circle cx="352.7272727272727" cy="297.2727272727273" r="0" fill="#ffffb2"><title>1</title></circle><circle cx="357.8349282296651" cy="389.2105263157895" r="0" fill="#ffffb2"><title>1</title></circle><circle cx="357.8349282296651" cy="381.9138755980862" r="0.6543242095991559" fill="#ffffb2"><title>2</title></circle><circle cx="357.8349282296651" cy="354.18660287081343" r="0" fill="#ffffb2"><title>1</title></circle><circle cx="357.8349282296651" cy="292.1650717703349" r="1.691403545127828" fill="#ffffb2"><title>6</title></circle><circle cx="357.8349282296651" cy="168.122009569378" r="0.6543242095991559" fill="#ffffb2"><title>2</title></circle><circle cx="358.5645933014354" cy="291.4354066985646" r="1.5192937654332472" fill="#ffffb2"><title>5</title></circle><circle cx="359.2942583732057" cy="519.8205741626795" r="0" fill="#ffffb2"><title>1</title></circle><circle cx="359.2942583732057" cy="290.7057416267943" r="2.6172968383966237" fill="#fecc5c"><title>16</title></circle><circle cx="359.2942583732057" cy="78.37320574162686" r="0" fill="#ffffb2"><title>1</title></circle><circle cx="360.02392344497605" cy="289.97607655502395" r="0" fill="#ffffb2"><title>1</title></circle><circle cx="360.02392344497605" cy="266.62679425837325" r="0" fill="#ffffb2"><title>1</title></circle><circle cx="362.2129186602871" cy="575.2751196172248" r="0" fill="#ffffb2"><title>1</title></circle><circle cx="362.2129186602871" cy="405.2631578947369" r="0.6543242095991559" fill="#ffffb2"><title>2</title></circle><circle cx="362.2129186602871" cy="402.3444976076555" r="0.6543242095991559" fill="#ffffb2"><title>2</title></circle><circle cx="362.2129186602871" cy="389.2105263157895" r="0.6543242095991559" fill="#ffffb2"><title>2</title></circle><circle cx="362.2129186602871" cy="287.7870813397129" r="2.7795218126684818" fill="#fecc5c"><title>19</title></circle><circle cx="362.2129186602871" cy="211.17224880382776" r="0" fill="#ffffb2"><title>1</title></circle><circle cx="362.2129186602871" cy="143.31339712918663" r="0" fill="#ffffb2"><title>1</title></circle><circle cx="362.9425837320574" cy="405.99282296650716" r="0.6543242095991559" fill="#ffffb2"><title>2</title></circle><circle cx="362.9425837320574" cy="392.12918660287085" r="0" fill="#ffffb2"><title>1</title></circle><circle cx="362.9425837320574" cy="389.2105263157895" r="0" fill="#ffffb2"><title>1</title></circle><circle cx="362.9425837320574" cy="287.0574162679426" r="2.1736179750324034" fill="#fecc5c"><title>10</title></circle><circle cx="362.9425837320574" cy="286.32775119617224" r="0" fill="#ffffb2"><title>1</title></circle><circle cx="362.9425837320574" cy="283.40909090909093" r="0" fill="#ffffb2"><title>1</title></circle><circle cx="363.67224880382776" cy="478.9593301435407" r="0" fill="#ffffb2"><title>1</title></circle><circle cx="363.67224880382776" cy="392.12918660287085" r="1.5192937654332472" fill="#ffffb2"><title>5</title></circle><circle cx="363.67224880382776" cy="343.9712918660287" r="0" fill="#ffffb2"><title>1</title></circle><circle cx="363.67224880382776" cy="287.0574162679426" r="0" fill="#ffffb2"><title>1</title></circle><circle cx="363.67224880382776" cy="286.32775119617224" r="3.692911740465651" fill="#fecc5c"><title>50</title></circle><circle cx="363.67224880382776" cy="238.16985645933016" r="0" fill="#ffffb2"><title>1</title></circle><circle cx="363.67224880382776" cy="219.92822966507174" r="0" fill="#ffffb2"><title>1</title></circle><circle cx="363.67224880382776" cy="191.4712918660287" r="0.6543242095991559" fill="#ffffb2"><title>2</title></circle><circle cx="363.67224880382776" cy="190.74162679425842" r="0" fill="#ffffb2"><title>1</title></circle><circle cx="363.67224880382776" cy="115.58612440191393" r="0" fill="#ffffb2"><title>1</title></circle><circle cx="364.40191387559804" cy="389.2105263157895" r="0" fill="#ffffb2"><title>1</title></circle><circle cx="364.40191387559804" cy="285.59808612440196" r="0" fill="#ffffb2"><title>1</title></circle><circle cx="366.59090909090907" cy="287.0574162679426" r="0" fill="#ffffb2"><title>1</title></circle><circle cx="366.59090909090907" cy="283.40909090909093" r="2.873999625968314" fill="#fecc5c"><title>21</title></circle><circle cx="366.59090909090907" cy="97.34449760765551" r="0" fill="#ffffb2"><title>1</title></circle><circle cx="367.3205741626794" cy="392.12918660287085" r="1.5192937654332472" fill="#ffffb2"><title>5</title></circle><circle cx="367.3205741626794" cy="389.2105263157895" r="0.6543242095991559" fill="#ffffb2"><title>2</title></circle><circle cx="367.3205741626794" cy="343.9712918660287" r="0.6543242095991559" fill="#ffffb2"><title>2</title></circle><circle cx="367.3205741626794" cy="282.6794258373206" r="3.382807090255656" fill="#fecc5c"><title>36</title></circle><circle cx="367.3205741626794" cy="271.7344497607656" r="0.6543242095991559" fill="#ffffb2"><title>2</title></circle><circle cx="367.3205741626794" cy="186.36363636363637" r="0" fill="#ffffb2"><title>1</title></circle><circle cx="367.3205741626794" cy="141.85406698564594" r="0.6543242095991559" fill="#ffffb2"><title>2</title></circle><circle cx="368.05023923444975" cy="281.94976076555025" r="0" fill="#ffffb2"><title>1</title></circle><circle cx="368.77990430622003" cy="281.22009569377997" r="0.6543242095991559" fill="#ffffb2"><title>2</title></circle><circle cx="370.2392344497608" cy="522.7392344497607" r="0" fill="#ffffb2"><title>1</title></circle><circle cx="370.2392344497608" cy="279.7607655502392" r="1.836920290439642" fill="#ffffb2"><title>7</title></circle><circle cx="373.15789473684214" cy="276.84210526315786" r="2.0741586710573445" fill="#fecc5c"><title>9</title></circle><circle cx="373.15789473684214" cy="113.39712918660291" r="0" fill="#ffffb2"><title>1</title></circle><circle cx="373.15789473684214" cy="112.66746411483257" r="0" fill="#ffffb2"><title>1</title></circle><circle cx="374.61722488038276" cy="389.2105263157895" r="0" fill="#ffffb2"><title>1</title></circle><circle cx="374.61722488038276" cy="275.38277511961724" r="1.0370793355286723" fill="#ffffb2"><title>3</title></circle><circle cx="376.0765550239234" cy="273.9234449760766" r="2.0741586710573445" fill="#fecc5c"><title>9</title></circle><circle cx="376.0765550239234" cy="92.96650717703358" r="1.3086484191983119" fill="#ffffb2"><title>4</title></circle><circle cx="378.2655502392344" cy="611.7583732057416" r="0" fill="#ffffb2"><title>1</title></circle><circle cx="378.2655502392344" cy="575.2751196172248" r="0" fill="#ffffb2"><title>1</title></circle><circle cx="378.2655502392344" cy="567.9784688995215" r="1.3086484191983119" fill="#ffffb2"><title>4</title></circle><circle cx="378.2655502392344" cy="567.2488038277512" r="0.6543242095991559" fill="#ffffb2"><title>2</title></circle><circle cx="378.2655502392344" cy="562.1411483253588" r="1.3086484191983119" fill="#ffffb2"><title>4</title></circle><circle cx="378.2655502392344" cy="493.5526315789474" r="1.0370793355286723" fill="#ffffb2"><title>3</title></circle><circle cx="378.2655502392344" cy="392.12918660287085" r="1.0370793355286723" fill="#ffffb2"><title>3</title></circle><circle cx="378.2655502392344" cy="343.9712918660287" r="0.6543242095991559" fill="#ffffb2"><title>2</title></circle><circle cx="378.2655502392344" cy="282.6794258373206" r="0.6543242095991559" fill="#ffffb2"><title>2</title></circle><circle cx="378.2655502392344" cy="271.7344497607656" r="4.226562488324647" fill="#fd8d3c"><title>88</title></circle><circle cx="378.2655502392344" cy="269.5454545454545" r="1.5192937654332472" fill="#ffffb2"><title>5</title></circle><circle cx="378.2655502392344" cy="264.4377990430622" r="2.421287293741994" fill="#fecc5c"><title>13</title></circle><circle cx="378.2655502392344" cy="241.8181818181818" r="0" fill="#ffffb2"><title>1</title></circle><circle cx="378.2655502392344" cy="149.88038277511964" r="1.691403545127828" fill="#ffffb2"><title>6</title></circle><circle cx="378.2655502392344" cy="147.69138755980867" r="0.6543242095991559" fill="#ffffb2"><title>2</title></circle><circle cx="378.2655502392344" cy="144.7727272727273" r="0.6543242095991559" fill="#ffffb2"><title>2</title></circle><circle cx="378.2655502392344" cy="141.85406698564594" r="0.6543242095991559" fill="#ffffb2"><title>2</title></circle><circle cx="378.2655502392344" cy="100.99282296650722" r="0.6543242095991559" fill="#ffffb2"><title>2</title></circle><circle cx="380.4545454545455" cy="567.9784688995215" r="0.6543242095991559" fill="#ffffb2"><title>2</title></circle><circle cx="380.4545454545455" cy="567.2488038277512" r="0" fill="#ffffb2"><title>1</title></circle><circle cx="380.4545454545455" cy="493.5526315789474" r="1.0370793355286723" fill="#ffffb2"><title>3</title></circle><circle cx="380.4545454545455" cy="271.7344497607656" r="1.5192937654332472" fill="#ffffb2"><title>5</title></circle><circle cx="380.4545454545455" cy="269.5454545454545" r="2.5563731009619195" fill="#fecc5c"><title>15</title></circle><circle cx="380.4545454545455" cy="149.88038277511964" r="0" fill="#ffffb2"><title>1</title></circle><circle cx="381.1842105263158" cy="268.8157894736842" r="1.0370793355286723" fill="#ffffb2"><title>3</title></circle><circle cx="383.37320574162675" cy="392.12918660287085" r="0" fill="#ffffb2"><title>1</title></circle><circle cx="383.37320574162675" cy="389.2105263157895" r="0" fill="#ffffb2"><title>1</title></circle><circle cx="383.37320574162675" cy="381.9138755980862" r="0" fill="#ffffb2"><title>1</title></circle><circle cx="383.37320574162675" cy="289.97607655502395" r="0" fill="#ffffb2"><title>1</title></circle><circle cx="383.37320574162675" cy="266.62679425837325" r="3.0385875308664945" fill="#fecc5c"><title>25</title></circle><circle cx="383.37320574162675" cy="235.25119617224885" r="0" fill="#ffffb2"><title>1</title></circle><circle cx="383.37320574162675" cy="222.11722488038276" r="0.6543242095991559" fill="#ffffb2"><title>2</title></circle><circle cx="383.37320574162675" cy="135.28708133971293" r="0" fill="#ffffb2"><title>1</title></circle><circle cx="383.37320574162675" cy="60.86124401913878" r="0" fill="#ffffb2"><title>1</title></circle><circle cx="384.1028708133971" cy="265.8971291866029" r="2.7284828806565002" fill="#fecc5c"><title>18</title></circle><circle cx="385.5622009569378" cy="567.9784688995215" r="0" fill="#ffffb2"><title>1</title></circle><circle cx="385.5622009569378" cy="562.1411483253588" r="0.6543242095991559" fill="#ffffb2"><title>2</title></circle><circle cx="385.5622009569378" cy="405.2631578947369" r="0.6543242095991559" fill="#ffffb2"><title>2</title></circle><circle cx="385.5622009569378" cy="271.7344497607656" r="2.421287293741994" fill="#fecc5c"><title>13</title></circle><circle cx="385.5622009569378" cy="264.4377990430622" r="2.674525892867049" fill="#fecc5c"><title>17</title></circle><circle cx="385.5622009569378" cy="100.99282296650722" r="0.6543242095991559" fill="#ffffb2"><title>2</title></circle><circle cx="387.02153110047846" cy="262.97846889952154" r="0.6543242095991559" fill="#ffffb2"><title>2</title></circle><circle cx="388.48086124401914" cy="567.9784688995215" r="0" fill="#ffffb2"><title>1</title></circle><circle cx="388.48086124401914" cy="261.51913875598086" r="3.382807090255656" fill="#fecc5c"><title>36</title></circle><circle cx="389.9401913875598" cy="489.17464114832535" r="0.6543242095991559" fill="#ffffb2"><title>2</title></circle><circle cx="389.9401913875598" cy="260.0598086124402" r="1.691403545127828" fill="#ffffb2"><title>6</title></circle><circle cx="393.58851674641147" cy="478.9593301435407" r="0" fill="#ffffb2"><title>1</title></circle><circle cx="393.58851674641147" cy="451.23205741626793" r="0" fill="#ffffb2"><title>1</title></circle><circle cx="393.58851674641147" cy="256.41148325358853" r="1.0370793355286723" fill="#ffffb2"><title>3</title></circle><circle cx="395.0478468899521" cy="254.9521531100479" r="0" fill="#ffffb2"><title>1</title></circle><circle cx="395.7775119617225" cy="254.2224880382775" r="1.0370793355286723" fill="#ffffb2"><title>3</title></circle><circle cx="398.6961722488038" cy="522.7392344497607" r="0" fill="#ffffb2"><title>1</title></circle><circle cx="398.6961722488038" cy="251.3038277511962" r="1.0370793355286723" fill="#ffffb2"><title>3</title></circle><circle cx="398.6961722488038" cy="249.8444976076555" r="0" fill="#ffffb2"><title>1</title></circle><circle cx="399.4258373205742" cy="567.9784688995215" r="0" fill="#ffffb2"><title>1</title></circle><circle cx="399.4258373205742" cy="493.5526315789474" r="0" fill="#ffffb2"><title>1</title></circle><circle cx="399.4258373205742" cy="250.5741626794258" r="0" fill="#ffffb2"><title>1</title></circle><circle cx="400.1555023923445" cy="522.7392344497607" r="0" fill="#ffffb2"><title>1</title></circle><circle cx="400.1555023923445" cy="251.3038277511962" r="0" fill="#ffffb2"><title>1</title></circle><circle cx="400.1555023923445" cy="249.8444976076555" r="0.6543242095991559" fill="#ffffb2"><title>2</title></circle><circle cx="401.61483253588517" cy="489.17464114832535" r="0" fill="#ffffb2"><title>1</title></circle><circle cx="401.61483253588517" cy="248.38516746411483" r="0.6543242095991559" fill="#ffffb2"><title>2</title></circle><circle cx="401.61483253588517" cy="220.65789473684214" r="0" fill="#ffffb2"><title>1</title></circle><circle cx="401.61483253588517" cy="174.68899521531102" r="0" fill="#ffffb2"><title>1</title></circle><circle cx="406.72248803827745" cy="243.27751196172255" r="0.6543242095991559" fill="#ffffb2"><title>2</title></circle><circle cx="406.72248803827745" cy="73.26555023923447" r="0" fill="#ffffb2"><title>1</title></circle><circle cx="408.1818181818182" cy="271.7344497607656" r="0" fill="#ffffb2"><title>1</title></circle><circle cx="408.1818181818182" cy="241.8181818181818" r="2.421287293741994" fill="#fecc5c"><title>13</title></circle><circle cx="411.83014354066984" cy="481.87799043062205" r="0" fill="#ffffb2"><title>1</title></circle><circle cx="411.83014354066984" cy="392.12918660287085" r="0" fill="#ffffb2"><title>1</title></circle><circle cx="411.83014354066984" cy="389.2105263157895" r="0" fill="#ffffb2"><title>1</title></circle><circle cx="411.83014354066984" cy="286.32775119617224" r="0" fill="#ffffb2"><title>1</title></circle><circle cx="411.83014354066984" cy="238.16985645933016" r="6.759035824326517" fill="#f03b20"><title>1287</title></circle><circle cx="414.74880382775115" cy="266.62679425837325" r="0" fill="#ffffb2"><title>1</title></circle><circle cx="414.74880382775115" cy="235.25119617224885" r="0" fill="#ffffb2"><title>1</title></circle><circle cx="416.20813397129183" cy="233.79186602870817" r="2.1736179750324034" fill="#fecc5c"><title>10</title></circle><circle cx="418.3971291866029" cy="231.6028708133971" r="0" fill="#ffffb2"><title>1</title></circle><circle cx="423.5047846889952" cy="226.4952153110048" r="0" fill="#ffffb2"><title>1</title></circle><circle cx="423.5047846889952" cy="187.82296650717706" r="0" fill="#ffffb2"><title>1</title></circle><circle cx="424.23444976076553" cy="558.4928229665072" r="0" fill="#ffffb2"><title>1</title></circle><circle cx="424.23444976076553" cy="225.76555023923447" r="2.5563731009619195" fill="#fecc5c"><title>15</title></circle><circle cx="424.23444976076553" cy="168.122009569378" r="0" fill="#ffffb2"><title>1</title></circle><circle cx="426.42344497607655" cy="557.7631578947369" r="0.6543242095991559" fill="#ffffb2"><title>2</title></circle><circle cx="426.42344497607655" cy="392.12918660287085" r="0" fill="#ffffb2"><title>1</title></circle><circle cx="426.42344497607655" cy="223.57655502392345" r="3.4086714559088254" fill="#fecc5c"><title>37</title></circle><circle cx="426.42344497607655" cy="115.58612440191393" r="0.6543242095991559" fill="#ffffb2"><title>2</title></circle><circle cx="427.1531100478469" cy="496.4712918660287" r="0" fill="#ffffb2"><title>1</title></circle><circle cx="427.1531100478469" cy="222.8468899521531" r="1.0370793355286723" fill="#ffffb2"><title>3</title></circle><circle cx="427.88277511961724" cy="521.2799043062201" r="0" fill="#ffffb2"><title>1</title></circle><circle cx="427.88277511961724" cy="489.17464114832535" r="0" fill="#ffffb2"><title>1</title></circle><circle cx="427.88277511961724" cy="451.9617224880383" r="0" fill="#ffffb2"><title>1</title></circle><circle cx="427.88277511961724" cy="438.82775119617224" r="3.382807090255656" fill="#fecc5c"><title>36</title></circle><circle cx="427.88277511961724" cy="424.96411483253587" r="0.6543242095991559" fill="#ffffb2"><title>2</title></circle><circle cx="427.88277511961724" cy="422.04545454545456" r="0" fill="#ffffb2"><title>1</title></circle><circle cx="427.88277511961724" cy="392.12918660287085" r="3.5722382787254903" fill="#fecc5c"><title>44</title></circle><circle cx="427.88277511961724" cy="389.2105263157895" r="1.0370793355286723" fill="#ffffb2"><title>3</title></circle><circle cx="427.88277511961724" cy="266.62679425837325" r="0.6543242095991559" fill="#ffffb2"><title>2</title></circle><circle cx="427.88277511961724" cy="222.11722488038276" r="4.697988340317817" fill="#fd8d3c"><title>145</title></circle><circle cx="427.88277511961724" cy="98.07416267942585" r="0.6543242095991559" fill="#ffffb2"><title>2</title></circle><circle cx="427.88277511961724" cy="62.32057416267946" r="0" fill="#ffffb2"><title>1</title></circle><circle cx="429.34210526315786" cy="523.4688995215311" r="0" fill="#ffffb2"><title>1</title></circle><circle cx="429.34210526315786" cy="493.5526315789474" r="0" fill="#ffffb2"><title>1</title></circle><circle cx="429.34210526315786" cy="489.17464114832535" r="1.0370793355286723" fill="#ffffb2"><title>3</title></circle><circle cx="429.34210526315786" cy="438.82775119617224" r="0" fill="#ffffb2"><title>1</title></circle><circle cx="429.34210526315786" cy="392.12918660287085" r="1.0370793355286723" fill="#ffffb2"><title>3</title></circle><circle cx="429.34210526315786" cy="248.38516746411483" r="0" fill="#ffffb2"><title>1</title></circle><circle cx="429.34210526315786" cy="220.65789473684214" r="3.382807090255656" fill="#fecc5c"><title>36</title></circle><circle cx="429.34210526315786" cy="197.30861244019144" r="0" fill="#ffffb2"><title>1</title></circle><circle cx="429.34210526315786" cy="187.82296650717706" r="0" fill="#ffffb2"><title>1</title></circle><circle cx="429.34210526315786" cy="174.68899521531102" r="0" fill="#ffffb2"><title>1</title></circle><circle cx="429.34210526315786" cy="151.33971291866027" r="0.6543242095991559" fill="#ffffb2"><title>2</title></circle><circle cx="430.07177033492826" cy="286.32775119617224" r="0" fill="#ffffb2"><title>1</title></circle><circle cx="430.07177033492826" cy="219.92822966507174" r="1.0370793355286723" fill="#ffffb2"><title>3</title></circle><circle cx="432.9904306220095" cy="217.0095693779905" r="0" fill="#ffffb2"><title>1</title></circle><circle cx="435.1794258373206" cy="612.4880382775119" r="0" fill="#ffffb2"><title>1</title></circle><circle cx="435.1794258373206" cy="611.7583732057416" r="0" fill="#ffffb2"><title>1</title></circle><circle cx="435.1794258373206" cy="567.9784688995215" r="0" fill="#ffffb2"><title>1</title></circle><circle cx="435.1794258373206" cy="493.5526315789474" r="0.6543242095991559" fill="#ffffb2"><title>2</title></circle><circle cx="435.1794258373206" cy="214.8205741626794" r="3.8806250207410384" fill="#fecc5c"><title>61</title></circle><circle cx="435.9090909090909" cy="362.9425837320574" r="0" fill="#ffffb2"><title>1</title></circle><circle cx="435.9090909090909" cy="214.09090909090912" r="0" fill="#ffffb2"><title>1</title></circle><circle cx="438.82775119617224" cy="575.2751196172248" r="0" fill="#ffffb2"><title>1</title></circle><circle cx="438.82775119617224" cy="405.2631578947369" r="0" fill="#ffffb2"><title>1</title></circle><circle cx="438.82775119617224" cy="392.12918660287085" r="0" fill="#ffffb2"><title>1</title></circle><circle cx="438.82775119617224" cy="287.7870813397129" r="0" fill="#ffffb2"><title>1</title></circle><circle cx="438.82775119617224" cy="211.17224880382776" r="1.3086484191983119" fill="#ffffb2"><title>4</title></circle><circle cx="441.0167464114832" cy="208.9832535885168" r="0.6543242095991559" fill="#ffffb2"><title>2</title></circle><circle cx="442.4760765550239" cy="207.5239234449761" r="0" fill="#ffffb2"><title>1</title></circle><circle cx="445.3947368421052" cy="495.7416267942584" r="0" fill="#ffffb2"><title>1</title></circle><circle cx="445.3947368421052" cy="204.6052631578948" r="0.6543242095991559" fill="#ffffb2"><title>2</title></circle><circle cx="447.5837320574162" cy="202.41626794258377" r="0" fill="#ffffb2"><title>1</title></circle><circle cx="448.31339712918657" cy="201.68660287081343" r="2.0741586710573445" fill="#fecc5c"><title>9</title></circle><circle cx="451.9617224880382" cy="198.03827751196178" r="0.6543242095991559" fill="#ffffb2"><title>2</title></circle><circle cx="452.69138755980856" cy="220.65789473684214" r="0" fill="#ffffb2"><title>1</title></circle><circle cx="452.69138755980856" cy="197.30861244019144" r="1.3086484191983119" fill="#ffffb2"><title>4</title></circle><circle cx="452.69138755980856" cy="187.82296650717706" r="0" fill="#ffffb2"><title>1</title></circle><circle cx="453.42105263157896" cy="343.24162679425837" r="0" fill="#ffffb2"><title>1</title></circle><circle cx="453.42105263157896" cy="196.57894736842104" r="1.3086484191983119" fill="#ffffb2"><title>4</title></circle><circle cx="455.6100478468899" cy="194.38995215311007" r="1.5192937654332472" fill="#ffffb2"><title>5</title></circle><circle cx="457.0693779904306" cy="192.9306220095694" r="1.5192937654332472" fill="#ffffb2"><title>5</title></circle><circle cx="458.5287081339713" cy="286.32775119617224" r="0.6543242095991559" fill="#ffffb2"><title>2</title></circle><circle cx="458.5287081339713" cy="191.4712918660287" r="0.6543242095991559" fill="#ffffb2"><title>2</title></circle><circle cx="459.2583732057416" cy="489.17464114832535" r="0" fill="#ffffb2"><title>1</title></circle><circle cx="459.2583732057416" cy="392.12918660287085" r="0" fill="#ffffb2"><title>1</title></circle><circle cx="459.2583732057416" cy="286.32775119617224" r="0" fill="#ffffb2"><title>1</title></circle><circle cx="459.2583732057416" cy="190.74162679425842" r="2.6172968383966237" fill="#fecc5c"><title>16</title></circle><circle cx="460.7177033492823" cy="189.28229665071768" r="0.6543242095991559" fill="#ffffb2"><title>2</title></circle><circle cx="462.17703349282294" cy="343.24162679425837" r="0" fill="#ffffb2"><title>1</title></circle><circle cx="462.17703349282294" cy="226.4952153110048" r="0" fill="#ffffb2"><title>1</title></circle><circle cx="462.17703349282294" cy="220.65789473684214" r="0" fill="#ffffb2"><title>1</title></circle><circle cx="462.17703349282294" cy="197.30861244019144" r="0" fill="#ffffb2"><title>1</title></circle><circle cx="462.17703349282294" cy="187.82296650717706" r="2.345727754726984" fill="#fecc5c"><title>12</title></circle><circle cx="462.9066985645933" cy="624.8923444976076" r="0.6543242095991559" fill="#ffffb2"><title>2</title></circle><circle cx="462.9066985645933" cy="187.09330143540672" r="1.0370793355286723" fill="#ffffb2"><title>3</title></circle><circle cx="463.6363636363636" cy="282.6794258373206" r="0" fill="#ffffb2"><title>1</title></circle><circle cx="463.6363636363636" cy="186.36363636363637" r="0.6543242095991559" fill="#ffffb2"><title>2</title></circle><circle cx="463.6363636363636" cy="169.58133971291863" r="0" fill="#ffffb2"><title>1</title></circle><circle cx="466.55502392344494" cy="581.8421052631579" r="0" fill="#ffffb2"><title>1</title></circle><circle cx="466.55502392344494" cy="183.44497607655506" r="0.6543242095991559" fill="#ffffb2"><title>2</title></circle><circle cx="468.74401913875596" cy="181.25598086124404" r="0" fill="#ffffb2"><title>1</title></circle><circle cx="468.74401913875596" cy="161.555023923445" r="0" fill="#ffffb2"><title>1</title></circle><circle cx="469.4736842105263" cy="180.5263157894737" r="1.5192937654332472" fill="#ffffb2"><title>5</title></circle><circle cx="470.20334928229664" cy="597.165071770335" r="0.6543242095991559" fill="#ffffb2"><title>2</title></circle><circle cx="470.20334928229664" cy="536.6028708133971" r="0" fill="#ffffb2"><title>1</title></circle><circle cx="470.20334928229664" cy="452.6913875598086" r="0" fill="#ffffb2"><title>1</title></circle><circle cx="470.20334928229664" cy="425.6937799043062" r="0" fill="#ffffb2"><title>1</title></circle><circle cx="470.20334928229664" cy="392.12918660287085" r="1.3086484191983119" fill="#ffffb2"><title>4</title></circle><circle cx="470.20334928229664" cy="179.79665071770336" r="3.1786945748845703" fill="#fecc5c"><title>29</title></circle><circle cx="471.66267942583727" cy="178.33732057416273" r="0" fill="#ffffb2"><title>1</title></circle><circle cx="473.122009569378" cy="176.877990430622" r="0.6543242095991559" fill="#ffffb2"><title>2</title></circle><circle cx="473.8516746411483" cy="392.12918660287085" r="0" fill="#ffffb2"><title>1</title></circle><circle cx="473.8516746411483" cy="381.18421052631584" r="0.6543242095991559" fill="#ffffb2"><title>2</title></circle><circle cx="473.8516746411483" cy="176.1483253588517" r="2.1736179750324034" fill="#fecc5c"><title>10</title></circle><circle cx="473.8516746411483" cy="98.07416267942585" r="0" fill="#ffffb2"><title>1</title></circle><circle cx="475.311004784689" cy="489.17464114832535" r="0" fill="#ffffb2"><title>1</title></circle><circle cx="475.311004784689" cy="248.38516746411483" r="0" fill="#ffffb2"><title>1</title></circle><circle cx="475.311004784689" cy="220.65789473684214" r="0" fill="#ffffb2"><title>1</title></circle><circle cx="475.311004784689" cy="174.68899521531102" r="0" fill="#ffffb2"><title>1</title></circle><circle cx="476.0406698564593" cy="173.95933014354068" r="3.4583666292706656" fill="#fecc5c"><title>39</title></circle><circle cx="480.41866028708137" cy="186.36363636363637" r="0" fill="#ffffb2"><title>1</title></circle><circle cx="480.41866028708137" cy="169.58133971291863" r="2.0741586710573445" fill="#fecc5c"><title>9</title></circle><circle cx="481.14832535885165" cy="168.85167464114835" r="1.5192937654332472" fill="#ffffb2"><title>5</title></circle><circle cx="481.877990430622" cy="333.0263157894737" r="0" fill="#ffffb2"><title>1</title></circle><circle cx="481.877990430622" cy="292.1650717703349" r="0.6543242095991559" fill="#ffffb2"><title>2</title></circle><circle cx="481.877990430622" cy="225.76555023923447" r="0" fill="#ffffb2"><title>1</title></circle><circle cx="481.877990430622" cy="168.122009569378" r="1.691403545127828" fill="#ffffb2"><title>6</title></circle><circle cx="484.066985645933" cy="165.93301435406698" r="2.2635898595271784" fill="#fecc5c"><title>11</title></circle><circle cx="484.79665071770336" cy="429.3421052631579" r="0" fill="#ffffb2"><title>1</title></circle><circle cx="484.79665071770336" cy="165.20334928229664" r="0" fill="#ffffb2"><title>1</title></circle><circle cx="485.52631578947364" cy="164.47368421052636" r="1.836920290439642" fill="#ffffb2"><title>7</title></circle><circle cx="487.71531100478467" cy="162.28468899521533" r="0" fill="#ffffb2"><title>1</title></circle><circle cx="488.444976076555" cy="181.25598086124404" r="0" fill="#ffffb2"><title>1</title></circle><circle cx="488.444976076555" cy="161.555023923445" r="4.943150379220565" fill="#fd8d3c"><title>188</title></circle><circle cx="489.9043062200957" cy="160.0956937799043" r="0" fill="#ffffb2"><title>1</title></circle><circle cx="490.633971291866" cy="519.8205741626795" r="0" fill="#ffffb2"><title>1</title></circle><circle cx="490.633971291866" cy="464.36602870813397" r="1.0370793355286723" fill="#ffffb2"><title>3</title></circle><circle cx="490.633971291866" cy="462.17703349282294" r="0" fill="#ffffb2"><title>1</title></circle><circle cx="490.633971291866" cy="159.36602870813402" r="1.3086484191983119" fill="#ffffb2"><title>4</title></circle><circle cx="490.633971291866" cy="78.37320574162686" r="0.6543242095991559" fill="#ffffb2"><title>2</title></circle><circle cx="491.3636363636364" cy="495.7416267942584" r="0" fill="#ffffb2"><title>1</title></circle><circle cx="491.3636363636364" cy="405.99282296650716" r="0" fill="#ffffb2"><title>1</title></circle><circle cx="491.3636363636364" cy="158.63636363636363" r="1.691403545127828" fill="#ffffb2"><title>6</title></circle><circle cx="492.0933014354067" cy="157.90669856459328" r="1.5192937654332472" fill="#ffffb2"><title>5</title></circle><circle cx="493.55263157894734" cy="156.44736842105266" r="0" fill="#ffffb2"><title>1</title></circle><circle cx="494.2822966507177" cy="580.3827751196172" r="0" fill="#ffffb2"><title>1</title></circle><circle cx="494.2822966507177" cy="481.87799043062205" r="0" fill="#ffffb2"><title>1</title></circle><circle cx="494.2822966507177" cy="443.2057416267943" r="0" fill="#ffffb2"><title>1</title></circle><circle cx="494.2822966507177" cy="438.82775119617224" r="0" fill="#ffffb2"><title>1</title></circle><circle cx="494.2822966507177" cy="392.12918660287085" r="0" fill="#ffffb2"><title>1</title></circle><circle cx="494.2822966507177" cy="155.71770334928232" r="3.5505363966962085" fill="#fecc5c"><title>43</title></circle><circle cx="494.2822966507177" cy="44.07894736842104" r="0" fill="#ffffb2"><title>1</title></circle><circle cx="497.200956937799" cy="435.9090909090909" r="0.6543242095991559" fill="#ffffb2"><title>2</title></circle><circle cx="497.200956937799" cy="152.799043062201" r="1.0370793355286723" fill="#ffffb2"><title>3</title></circle><circle cx="498.66028708133973" cy="558.4928229665072" r="0" fill="#ffffb2"><title>1</title></circle><circle cx="498.66028708133973" cy="511.0645933014354" r="0" fill="#ffffb2"><title>1</title></circle><circle cx="498.66028708133973" cy="392.12918660287085" r="0" fill="#ffffb2"><title>1</title></circle><circle cx="498.66028708133973" cy="220.65789473684214" r="0.6543242095991559" fill="#ffffb2"><title>2</title></circle><circle cx="498.66028708133973" cy="151.33971291866027" r="1.0370793355286723" fill="#ffffb2"><title>3</title></circle><circle cx="498.66028708133973" cy="98.07416267942585" r="0" fill="#ffffb2"><title>1</title></circle><circle cx="499.3899521531101" cy="616.866028708134" r="0" fill="#ffffb2"><title>1</title></circle><circle cx="499.3899521531101" cy="465.82535885167465" r="0" fill="#ffffb2"><title>1</title></circle><circle cx="499.3899521531101" cy="150.61004784688993" r="2.345727754726984" fill="#fecc5c"><title>12</title></circle><circle cx="500.11961722488036" cy="567.9784688995215" r="0" fill="#ffffb2"><title>1</title></circle><circle cx="500.11961722488036" cy="271.7344497607656" r="1.691403545127828" fill="#ffffb2"><title>6</title></circle><circle cx="500.11961722488036" cy="269.5454545454545" r="0" fill="#ffffb2"><title>1</title></circle><circle cx="500.11961722488036" cy="149.88038277511964" r="1.836920290439642" fill="#ffffb2"><title>7</title></circle><circle cx="502.3086124401913" cy="611.7583732057416" r="0" fill="#ffffb2"><title>1</title></circle><circle cx="502.3086124401913" cy="567.9784688995215" r="0" fill="#ffffb2"><title>1</title></circle><circle cx="502.3086124401913" cy="271.7344497607656" r="0.6543242095991559" fill="#ffffb2"><title>2</title></circle><circle cx="502.3086124401913" cy="147.69138755980867" r="0.6543242095991559" fill="#ffffb2"><title>2</title></circle><circle cx="502.3086124401913" cy="144.7727272727273" r="0" fill="#ffffb2"><title>1</title></circle><circle cx="505.2272727272727" cy="611.7583732057416" r="0" fill="#ffffb2"><title>1</title></circle><circle cx="505.2272727272727" cy="567.9784688995215" r="0" fill="#ffffb2"><title>1</title></circle><circle cx="505.2272727272727" cy="271.7344497607656" r="0.6543242095991559" fill="#ffffb2"><title>2</title></circle><circle cx="505.2272727272727" cy="147.69138755980867" r="0" fill="#ffffb2"><title>1</title></circle><circle cx="505.2272727272727" cy="144.7727272727273" r="0.6543242095991559" fill="#ffffb2"><title>2</title></circle><circle cx="506.6866028708134" cy="287.7870813397129" r="0" fill="#ffffb2"><title>1</title></circle><circle cx="506.6866028708134" cy="143.31339712918663" r="0" fill="#ffffb2"><title>1</title></circle><circle cx="508.14593301435406" cy="392.12918660287085" r="0.6543242095991559" fill="#ffffb2"><title>2</title></circle><circle cx="508.14593301435406" cy="343.9712918660287" r="0.6543242095991559" fill="#ffffb2"><title>2</title></circle><circle cx="508.14593301435406" cy="282.6794258373206" r="0.6543242095991559" fill="#ffffb2"><title>2</title></circle><circle cx="508.14593301435406" cy="271.7344497607656" r="0.6543242095991559" fill="#ffffb2"><title>2</title></circle><circle cx="508.14593301435406" cy="141.85406698564594" r="0.6543242095991559" fill="#ffffb2"><title>2</title></circle><circle cx="514.7129186602871" cy="266.62679425837325" r="0" fill="#ffffb2"><title>1</title></circle><circle cx="514.7129186602871" cy="135.28708133971293" r="0" fill="#ffffb2"><title>1</title></circle><circle cx="517.6315789473683" cy="330.8373205741627" r="0" fill="#ffffb2"><title>1</title></circle><circle cx="517.6315789473683" cy="132.36842105263162" r="0" fill="#ffffb2"><title>1</title></circle><circle cx="528.5765550239234" cy="585.4904306220096" r="1.5192937654332472" fill="#ffffb2"><title>5</title></circle><circle cx="528.5765550239234" cy="519.8205741626795" r="0" fill="#ffffb2"><title>1</title></circle><circle cx="528.5765550239234" cy="303.1100478468899" r="1.836920290439642" fill="#ffffb2"><title>7</title></circle><circle cx="528.5765550239234" cy="121.42344497607661" r="1.836920290439642" fill="#ffffb2"><title>7</title></circle><circle cx="528.5765550239234" cy="78.37320574162686" r="0" fill="#ffffb2"><title>1</title></circle><circle cx="534.4138755980861" cy="392.12918660287085" r="0.6543242095991559" fill="#ffffb2"><title>2</title></circle><circle cx="534.4138755980861" cy="286.32775119617224" r="0" fill="#ffffb2"><title>1</title></circle><circle cx="534.4138755980861" cy="223.57655502392345" r="0.6543242095991559" fill="#ffffb2"><title>2</title></circle><circle cx="534.4138755980861" cy="115.58612440191393" r="1.0370793355286723" fill="#ffffb2"><title>3</title></circle><circle cx="536.6028708133971" cy="276.84210526315786" r="0" fill="#ffffb2"><title>1</title></circle><circle cx="536.6028708133971" cy="113.39712918660291" r="0" fill="#ffffb2"><title>1</title></circle><circle cx="536.6028708133971" cy="112.66746411483257" r="0" fill="#ffffb2"><title>1</title></circle><circle cx="537.3325358851674" cy="276.84210526315786" r="0" fill="#ffffb2"><title>1</title></circle><circle cx="537.3325358851674" cy="113.39712918660291" r="0" fill="#ffffb2"><title>1</title></circle><circle cx="537.3325358851674" cy="112.66746411483257" r="0" fill="#ffffb2"><title>1</title></circle><circle cx="549.0071770334928" cy="271.7344497607656" r="0.6543242095991559" fill="#ffffb2"><title>2</title></circle><circle cx="549.0071770334928" cy="264.4377990430622" r="0.6543242095991559" fill="#ffffb2"><title>2</title></circle><circle cx="549.0071770334928" cy="100.99282296650722" r="0.6543242095991559" fill="#ffffb2"><title>2</title></circle><circle cx="551.9258373205741" cy="558.4928229665072" r="0" fill="#ffffb2"><title>1</title></circle><circle cx="551.9258373205741" cy="511.0645933014354" r="0" fill="#ffffb2"><title>1</title></circle><circle cx="551.9258373205741" cy="489.17464114832535" r="0" fill="#ffffb2"><title>1</title></circle><circle cx="551.9258373205741" cy="392.12918660287085" r="1.0370793355286723" fill="#ffffb2"><title>3</title></circle><circle cx="551.9258373205741" cy="222.11722488038276" r="0.6543242095991559" fill="#ffffb2"><title>2</title></circle><circle cx="551.9258373205741" cy="176.1483253588517" r="0" fill="#ffffb2"><title>1</title></circle><circle cx="551.9258373205741" cy="151.33971291866027" r="0" fill="#ffffb2"><title>1</title></circle><circle cx="551.9258373205741" cy="98.07416267942585" r="1.3086484191983119" fill="#ffffb2"><title>4</title></circle><circle cx="552.6555023923445" cy="283.40909090909093" r="0" fill="#ffffb2"><title>1</title></circle><circle cx="552.6555023923445" cy="97.34449760765551" r="0" fill="#ffffb2"><title>1</title></circle><circle cx="557.0334928229664" cy="273.9234449760766" r="1.3086484191983119" fill="#ffffb2"><title>4</title></circle><circle cx="557.0334928229664" cy="92.96650717703358" r="1.3086484191983119" fill="#ffffb2"><title>4</title></circle><circle cx="571.6267942583731" cy="519.8205741626795" r="1.0370793355286723" fill="#ffffb2"><title>3</title></circle><circle cx="571.6267942583731" cy="464.36602870813397" r="0" fill="#ffffb2"><title>1</title></circle><circle cx="571.6267942583731" cy="462.17703349282294" r="0" fill="#ffffb2"><title>1</title></circle><circle cx="571.6267942583731" cy="303.1100478468899" r="0" fill="#ffffb2"><title>1</title></circle><circle cx="571.6267942583731" cy="290.7057416267943" r="0" fill="#ffffb2"><title>1</title></circle><circle cx="571.6267942583731" cy="159.36602870813402" r="0.6543242095991559" fill="#ffffb2"><title>2</title></circle><circle cx="571.6267942583731" cy="121.42344497607661" r="0" fill="#ffffb2"><title>1</title></circle><circle cx="571.6267942583731" cy="78.37320574162686" r="1.3086484191983119" fill="#ffffb2"><title>4</title></circle><circle cx="576.7344497607655" cy="243.27751196172255" r="0" fill="#ffffb2"><title>1</title></circle><circle cx="576.7344497607655" cy="73.26555023923447" r="0" fill="#ffffb2"><title>1</title></circle><circle cx="587.6794258373205" cy="392.12918660287085" r="0" fill="#ffffb2"><title>1</title></circle><circle cx="587.6794258373205" cy="222.11722488038276" r="0" fill="#ffffb2"><title>1</title></circle><circle cx="587.6794258373205" cy="62.32057416267946" r="0" fill="#ffffb2"><title>1</title></circle><circle cx="589.1387559808612" cy="266.62679425837325" r="0" fill="#ffffb2"><title>1</title></circle><circle cx="589.1387559808612" cy="60.86124401913878" r="0" fill="#ffffb2"><title>1</title></circle><circle cx="605.921052631579" cy="155.71770334928232" r="0" fill="#ffffb2"><title>1</title></circle><circle cx="605.921052631579" cy="44.07894736842104" r="0" fill="#ffffb2"><title>1</title></circle><circle cx="610.2990430622009" cy="298.73205741626793" r="0" fill="#ffffb2"><title>1</title></circle><circle cx="610.2990430622009" cy="39.700956937799106" r="0" fill="#ffffb2"><title>1</title></circle><circle cx="612.4880382775119" cy="330.10765550239233" r="0.6543242095991559" fill="#ffffb2"><title>2</title></circle><circle cx="612.4880382775119" cy="37.51196172248808" r="0.6543242095991559" fill="#ffffb2"><title>2</title></circle><g class="axes" transform="translate(0,630)"><g class="tick" style="opacity: 1;" transform="translate(20,0)"><line y2="6" x2="0"></line><text y="9" x="0" dy=".71em" style="text-anchor: middle;" font-size="8px" fill="white">0</text></g><g class="tick" style="opacity: 1;" transform="translate(92.96650717703349,0)"><line y2="6" x2="0"></line><text y="9" x="0" dy=".71em" style="text-anchor: middle;" font-size="8px" fill="white">100</text></g><g class="tick" style="opacity: 1;" transform="translate(165.93301435406698,0)"><line y2="6" x2="0"></line><text y="9" x="0" dy=".71em" style="text-anchor: middle;" font-size="8px" fill="white">200</text></g><g class="tick" style="opacity: 1;" transform="translate(238.89952153110048,0)"><line y2="6" x2="0"></line><text y="9" x="0" dy=".71em" style="text-anchor: middle;" font-size="8px" fill="white">300</text></g><g class="tick" style="opacity: 1;" transform="translate(311.86602870813397,0)"><line y2="6" x2="0"></line><text y="9" x="0" dy=".71em" style="text-anchor: middle;" font-size="8px" fill="white">400</text></g><g class="tick" style="opacity: 1;" transform="translate(384.8325358851675,0)"><line y2="6" x2="0"></line><text y="9" x="0" dy=".71em" style="text-anchor: middle;" font-size="8px" fill="white">500</text></g><g class="tick" style="opacity: 1;" transform="translate(457.79904306220095,0)"><line y2="6" x2="0"></line><text y="9" x="0" dy=".71em" style="text-anchor: middle;" font-size="8px" fill="white">600</text></g><g class="tick" style="opacity: 1;" transform="translate(530.7655502392345,0)"><line y2="6" x2="0"></line><text y="9" x="0" dy=".71em" style="text-anchor: middle;" font-size="8px" fill="white">700</text></g><g class="tick" style="opacity: 1;" transform="translate(603.7320574162679,0)"><line y2="6" x2="0"></line><text y="9" x="0" dy=".71em" style="text-anchor: middle;" font-size="8px" fill="white">800</text></g><path class="domain" d="M20,6V0H630V6" fill="none" stroke="white" shape-rendering="crispEdges"></path></g><g class="axes" transform="translate(20,0)"><g class="tick" style="opacity: 1;" transform="translate(0,630)"><line x2="-6" y2="0"></line><text x="-9" y="0" dy=".32em" style="text-anchor: end;" font-size="8px" fill="white">0</text></g><g class="tick" style="opacity: 1;" transform="translate(0,557.0334928229665)"><line x2="-6" y2="0"></line><text x="-9" y="0" dy=".32em" style="text-anchor: end;" font-size="8px" fill="white">100</text></g><g class="tick" style="opacity: 1;" transform="translate(0,484.066985645933)"><line x2="-6" y2="0"></line><text x="-9" y="0" dy=".32em" style="text-anchor: end;" font-size="8px" fill="white">200</text></g><g class="tick" style="opacity: 1;" transform="translate(0,411.1004784688995)"><line x2="-6" y2="0"></line><text x="-9" y="0" dy=".32em" style="text-anchor: end;" font-size="8px" fill="white">300</text></g><g class="tick" style="opacity: 1;" transform="translate(0,338.13397129186603)"><line x2="-6" y2="0"></line><text x="-9" y="0" dy=".32em" style="text-anchor: end;" font-size="8px" fill="white">400</text></g><g class="tick" style="opacity: 1;" transform="translate(0,265.1674641148325)"><line x2="-6" y2="0"></line><text x="-9" y="0" dy=".32em" style="text-anchor: end;" font-size="8px" fill="white">500</text></g><g class="tick" style="opacity: 1;" transform="translate(0,192.20095693779905)"><line x2="-6" y2="0"></line><text x="-9" y="0" dy=".32em" style="text-anchor: end;" font-size="8px" fill="white">600</text></g><g class="tick" style="opacity: 1;" transform="translate(0,119.23444976076559)"><line x2="-6" y2="0"></line><text x="-9" y="0" dy=".32em" style="text-anchor: end;" font-size="8px" fill="white">700</text></g><g class="tick" style="opacity: 1;" transform="translate(0,46.267942583732065)"><line x2="-6" y2="0"></line><text x="-9" y="0" dy=".32em" style="text-anchor: end;" font-size="8px" fill="white">800</text></g><path class="domain" d="M-6,20H0V630H-6" fill="none" stroke="white" shape-rendering="crispEdges"></path></g></svg>